<svg xmlns="http://www.w3.org/2000/svg" xmlns:ns1="http://www.w3.org/1999/xlink" height="248.518125pt" version="1.1" viewBox="0 0 355.88125 248.518125" width="355.88125pt">
 <defs>
  <style type="text/css">
*{stroke-linecap:butt;stroke-linejoin:round;white-space:pre;}
  </style>
 </defs>
 <g id="figure_1">
  <g id="patch_1">
   <path d="M 0 248.518125  L 355.88125 248.518125  L 355.88125 0  L 0 0  z " style="fill:none;" />
  </g>
  <g id="axes_1">
   <g id="patch_2">
    <path d="M 10.7 224.64  L 345.5 224.64  L 345.5 7.2  L 10.7 7.2  z " style="fill:none;" />
   </g>
   <g id="matplotlib.axis_1">
    <g id="xtick_1">
     <g id="line2d_1">
      <defs>
       <path d="M 0 0  L 0 3.5  " id="mb4469a681d" style="stroke:#555555;stroke-width:0.8;" />
      </defs>
      <g>
       <use style="fill:#555555;stroke:#555555;stroke-width:0.8;" x="10.7" y="224.64" ns1:href="#mb4469a681d" />
      </g>
     </g>
     <g id="text_1">
      <text style="text-anchor:middle;font-family:-apple-system,BlinkMacSystemFont,&quot;Segoe UI&quot;,Roboto,&quot;Helvetica Neue&quot;,Arial,&quot;Noto Sans&quot;,sans-serif,&quot;Apple Color Emoji&quot;,&quot;Segoe UI Emoji&quot;,&quot;Segoe UI Symbol&quot;,&quot;Noto Color Emoji&quot;;font-size:0.7em;color:#6c757d" transform="rotate(-0, 10.7, 239.238438)" x="10.7" y="239.238438">3</text>
     </g>
    </g>
    <g id="xtick_2">
     <g id="line2d_2">
      <g>
       <use style="fill:#555555;stroke:#555555;stroke-width:0.8;" x="77.66" y="224.64" ns1:href="#mb4469a681d" />
      </g>
     </g>
     <g id="text_2">
      <text style="text-anchor:middle;font-family:-apple-system,BlinkMacSystemFont,&quot;Segoe UI&quot;,Roboto,&quot;Helvetica Neue&quot;,Arial,&quot;Noto Sans&quot;,sans-serif,&quot;Apple Color Emoji&quot;,&quot;Segoe UI Emoji&quot;,&quot;Segoe UI Symbol&quot;,&quot;Noto Color Emoji&quot;;font-size:0.7em;color:#6c757d" transform="rotate(-0, 77.66, 239.238438)" x="77.66" y="239.238438">4</text>
     </g>
    </g>
    <g id="xtick_3">
     <g id="line2d_3">
      <g>
       <use style="fill:#555555;stroke:#555555;stroke-width:0.8;" x="144.62" y="224.64" ns1:href="#mb4469a681d" />
      </g>
     </g>
     <g id="text_3">
      <text style="text-anchor:middle;font-family:-apple-system,BlinkMacSystemFont,&quot;Segoe UI&quot;,Roboto,&quot;Helvetica Neue&quot;,Arial,&quot;Noto Sans&quot;,sans-serif,&quot;Apple Color Emoji&quot;,&quot;Segoe UI Emoji&quot;,&quot;Segoe UI Symbol&quot;,&quot;Noto Color Emoji&quot;;font-size:0.7em;color:#6c757d" transform="rotate(-0, 144.62, 239.238438)" x="144.62" y="239.238438">5</text>
     </g>
    </g>
    <g id="xtick_4">
     <g id="line2d_4">
      <g>
       <use style="fill:#555555;stroke:#555555;stroke-width:0.8;" x="211.58" y="224.64" ns1:href="#mb4469a681d" />
      </g>
     </g>
     <g id="text_4">
      <text style="text-anchor:middle;font-family:-apple-system,BlinkMacSystemFont,&quot;Segoe UI&quot;,Roboto,&quot;Helvetica Neue&quot;,Arial,&quot;Noto Sans&quot;,sans-serif,&quot;Apple Color Emoji&quot;,&quot;Segoe UI Emoji&quot;,&quot;Segoe UI Symbol&quot;,&quot;Noto Color Emoji&quot;;font-size:0.7em;color:#6c757d" transform="rotate(-0, 211.58, 239.238438)" x="211.58" y="239.238438">6</text>
     </g>
    </g>
    <g id="xtick_5">
     <g id="line2d_5">
      <g>
       <use style="fill:#555555;stroke:#555555;stroke-width:0.8;" x="278.54" y="224.64" ns1:href="#mb4469a681d" />
      </g>
     </g>
     <g id="text_5">
      <text style="text-anchor:middle;font-family:-apple-system,BlinkMacSystemFont,&quot;Segoe UI&quot;,Roboto,&quot;Helvetica Neue&quot;,Arial,&quot;Noto Sans&quot;,sans-serif,&quot;Apple Color Emoji&quot;,&quot;Segoe UI Emoji&quot;,&quot;Segoe UI Symbol&quot;,&quot;Noto Color Emoji&quot;;font-size:0.7em;color:#6c757d" transform="rotate(-0, 278.54, 239.238438)" x="278.54" y="239.238438">7</text>
     </g>
    </g>
    <g id="xtick_6">
     <g id="line2d_6">
      <g>
       <use style="fill:#555555;stroke:#555555;stroke-width:0.8;" x="345.5" y="224.64" ns1:href="#mb4469a681d" />
      </g>
     </g>
     <g id="text_6">
      <text style="text-anchor:middle;font-family:-apple-system,BlinkMacSystemFont,&quot;Segoe UI&quot;,Roboto,&quot;Helvetica Neue&quot;,Arial,&quot;Noto Sans&quot;,sans-serif,&quot;Apple Color Emoji&quot;,&quot;Segoe UI Emoji&quot;,&quot;Segoe UI Symbol&quot;,&quot;Noto Color Emoji&quot;;font-size:0.7em;color:#6c757d" transform="rotate(-0, 345.5, 239.238438)" x="345.5" y="239.238438">8</text>
     </g>
    </g>
   </g>
   <g id="patch_3">
    <path clip-path="url(#p1521180635)" d="M 65.987853 224.64  L 68.506634 224.64  L 68.506634 224.637335  L 65.987853 224.637335  z " style="fill:#4b89b9;opacity:0.4;" />
   </g>
   <g id="patch_4">
    <path clip-path="url(#p1521180635)" d="M 68.506634 224.64  L 71.025414 224.64  L 71.025414 224.64  L 68.506634 224.64  z " style="fill:#4b89b9;opacity:0.4;" />
   </g>
   <g id="patch_5">
    <path clip-path="url(#p1521180635)" d="M 71.025414 224.64  L 73.544195 224.64  L 73.544195 224.64  L 71.025414 224.64  z " style="fill:#4b89b9;opacity:0.4;" />
   </g>
   <g id="patch_6">
    <path clip-path="url(#p1521180635)" d="M 73.544195 224.64  L 76.062975 224.64  L 76.062975 224.64  L 73.544195 224.64  z " style="fill:#4b89b9;opacity:0.4;" />
   </g>
   <g id="patch_7">
    <path clip-path="url(#p1521180635)" d="M 76.062975 224.64  L 78.581756 224.64  L 78.581756 224.64  L 76.062975 224.64  z " style="fill:#4b89b9;opacity:0.4;" />
   </g>
   <g id="patch_8">
    <path clip-path="url(#p1521180635)" d="M 78.581756 224.64  L 81.100536 224.64  L 81.100536 224.64  L 78.581756 224.64  z " style="fill:#4b89b9;opacity:0.4;" />
   </g>
   <g id="patch_9">
    <path clip-path="url(#p1521180635)" d="M 81.100536 224.64  L 83.619317 224.64  L 83.619317 224.634669  L 81.100536 224.634669  z " style="fill:#4b89b9;opacity:0.4;" />
   </g>
   <g id="patch_10">
    <path clip-path="url(#p1521180635)" d="M 83.619317 224.64  L 86.138097 224.64  L 86.138097 224.634669  L 83.619317 224.634669  z " style="fill:#4b89b9;opacity:0.4;" />
   </g>
   <g id="patch_11">
    <path clip-path="url(#p1521180635)" d="M 86.138097 224.64  L 88.656878 224.64  L 88.656878 224.632004  L 86.138097 224.632004  z " style="fill:#4b89b9;opacity:0.4;" />
   </g>
   <g id="patch_12">
    <path clip-path="url(#p1521180635)" d="M 88.656878 224.64  L 91.175658 224.64  L 91.175658 224.618678  L 88.656878 224.618678  z " style="fill:#4b89b9;opacity:0.4;" />
   </g>
   <g id="patch_13">
    <path clip-path="url(#p1521180635)" d="M 91.175658 224.64  L 93.694439 224.64  L 93.694439 224.605351  L 91.175658 224.605351  z " style="fill:#4b89b9;opacity:0.4;" />
   </g>
   <g id="patch_14">
    <path clip-path="url(#p1521180635)" d="M 93.694439 224.64  L 96.213219 224.64  L 96.213219 224.584029  L 93.694439 224.584029  z " style="fill:#4b89b9;opacity:0.4;" />
   </g>
   <g id="patch_15">
    <path clip-path="url(#p1521180635)" d="M 96.213219 224.64  L 98.732 224.64  L 98.732 224.541384  L 96.213219 224.541384  z " style="fill:#4b89b9;opacity:0.4;" />
   </g>
   <g id="patch_16">
    <path clip-path="url(#p1521180635)" d="M 98.732 224.64  L 101.25078 224.64  L 101.25078 224.482747  L 98.732 224.482747  z " style="fill:#4b89b9;opacity:0.4;" />
   </g>
   <g id="patch_17">
    <path clip-path="url(#p1521180635)" d="M 101.25078 224.64  L 103.76956 224.64  L 103.76956 224.394793  L 101.25078 224.394793  z " style="fill:#4b89b9;opacity:0.4;" />
   </g>
   <g id="patch_18">
    <path clip-path="url(#p1521180635)" d="M 103.76956 224.64  L 106.288341 224.64  L 106.288341 224.245536  L 103.76956 224.245536  z " style="fill:#4b89b9;opacity:0.4;" />
   </g>
   <g id="patch_19">
    <path clip-path="url(#p1521180635)" d="M 106.288341 224.64  L 108.807121 224.64  L 108.807121 224.114936  L 106.288341 224.114936  z " style="fill:#4b89b9;opacity:0.4;" />
   </g>
   <g id="patch_20">
    <path clip-path="url(#p1521180635)" d="M 108.807121 224.64  L 111.325902 224.64  L 111.325902 223.867063  L 108.807121 223.867063  z " style="fill:#4b89b9;opacity:0.4;" />
   </g>
   <g id="patch_21">
    <path clip-path="url(#p1521180635)" d="M 111.325902 224.64  L 113.844682 224.64  L 113.844682 223.264706  L 111.325902 223.264706  z " style="fill:#4b89b9;opacity:0.4;" />
   </g>
   <g id="patch_22">
    <path clip-path="url(#p1521180635)" d="M 113.844682 224.64  L 116.363463 224.64  L 116.363463 222.81427  L 113.844682 222.81427  z " style="fill:#4b89b9;opacity:0.4;" />
   </g>
   <g id="patch_23">
    <path clip-path="url(#p1521180635)" d="M 116.363463 224.64  L 118.882243 224.64  L 118.882243 221.956044  L 116.363463 221.956044  z " style="fill:#4b89b9;opacity:0.4;" />
   </g>
   <g id="patch_24">
    <path clip-path="url(#p1521180635)" d="M 118.882243 224.64  L 121.401024 224.64  L 121.401024 220.612734  L 118.882243 220.612734  z " style="fill:#4b89b9;opacity:0.4;" />
   </g>
   <g id="patch_25">
    <path clip-path="url(#p1521180635)" d="M 121.401024 224.64  L 123.919804 224.64  L 123.919804 219.093513  L 121.401024 219.093513  z " style="fill:#4b89b9;opacity:0.4;" />
   </g>
   <g id="patch_26">
    <path clip-path="url(#p1521180635)" d="M 123.919804 224.64  L 126.438585 224.64  L 126.438585 216.69741  L 123.919804 216.69741  z " style="fill:#4b89b9;opacity:0.4;" />
   </g>
   <g id="patch_27">
    <path clip-path="url(#p1521180635)" d="M 126.438585 224.64  L 128.957365 224.64  L 128.957365 214.106739  L 126.438585 214.106739  z " style="fill:#4b89b9;opacity:0.4;" />
   </g>
   <g id="patch_28">
    <path clip-path="url(#p1521180635)" d="M 128.957365 224.64  L 131.476146 224.64  L 131.476146 210.516582  L 128.957365 210.516582  z " style="fill:#4b89b9;opacity:0.4;" />
   </g>
   <g id="patch_29">
    <path clip-path="url(#p1521180635)" d="M 131.476146 224.64  L 133.994926 224.64  L 133.994926 206.209459  L 131.476146 206.209459  z " style="fill:#4b89b9;opacity:0.4;" />
   </g>
   <g id="patch_30">
    <path clip-path="url(#p1521180635)" d="M 133.994926 224.64  L 136.513707 224.64  L 136.513707 200.844213  L 133.994926 200.844213  z " style="fill:#4b89b9;opacity:0.4;" />
   </g>
   <g id="patch_31">
    <path clip-path="url(#p1521180635)" d="M 136.513707 224.64  L 139.032487 224.64  L 139.032487 193.783837  L 136.513707 193.783837  z " style="fill:#4b89b9;opacity:0.4;" />
   </g>
   <g id="patch_32">
    <path clip-path="url(#p1521180635)" d="M 139.032487 224.64  L 141.551267 224.64  L 141.551267 186.04914  L 139.032487 186.04914  z " style="fill:#4b89b9;opacity:0.4;" />
   </g>
   <g id="patch_33">
    <path clip-path="url(#p1521180635)" d="M 141.551267 224.64  L 144.070048 224.64  L 144.070048 177.221671  L 141.551267 177.221671  z " style="fill:#4b89b9;opacity:0.4;" />
   </g>
   <g id="patch_34">
    <path clip-path="url(#p1521180635)" d="M 144.070048 224.64  L 146.588828 224.64  L 146.588828 167.344074  L 144.070048 167.344074  z " style="fill:#4b89b9;opacity:0.4;" />
   </g>
   <g id="patch_35">
    <path clip-path="url(#p1521180635)" d="M 146.588828 224.64  L 149.107609 224.64  L 149.107609 154.729215  L 146.588828 154.729215  z " style="fill:#4b89b9;opacity:0.4;" />
   </g>
   <g id="patch_36">
    <path clip-path="url(#p1521180635)" d="M 149.107609 224.64  L 151.626389 224.64  L 151.626389 143.297749  L 149.107609 143.297749  z " style="fill:#4b89b9;opacity:0.4;" />
   </g>
   <g id="patch_37">
    <path clip-path="url(#p1521180635)" d="M 151.626389 224.64  L 154.14517 224.64  L 154.14517 129.832659  L 151.626389 129.832659  z " style="fill:#4b89b9;opacity:0.4;" />
   </g>
   <g id="patch_38">
    <path clip-path="url(#p1521180635)" d="M 154.14517 224.64  L 156.66395 224.64  L 156.66395 115.082896  L 154.14517 115.082896  z " style="fill:#4b89b9;opacity:0.4;" />
   </g>
   <g id="patch_39">
    <path clip-path="url(#p1521180635)" d="M 156.66395 224.64  L 159.182731 224.64  L 159.182731 101.289975  L 156.66395 101.289975  z " style="fill:#4b89b9;opacity:0.4;" />
   </g>
   <g id="patch_40">
    <path clip-path="url(#p1521180635)" d="M 159.182731 224.64  L 161.701511 224.64  L 161.701511 87.270504  L 159.182731 87.270504  z " style="fill:#4b89b9;opacity:0.4;" />
   </g>
   <g id="patch_41">
    <path clip-path="url(#p1521180635)" d="M 161.701511 224.64  L 164.220292 224.64  L 164.220292 73.426943  L 161.701511 73.426943  z " style="fill:#4b89b9;opacity:0.4;" />
   </g>
   <g id="patch_42">
    <path clip-path="url(#p1521180635)" d="M 164.220292 224.64  L 166.739072 224.64  L 166.739072 60.796092  L 164.220292 60.796092  z " style="fill:#4b89b9;opacity:0.4;" />
   </g>
   <g id="patch_43">
    <path clip-path="url(#p1521180635)" d="M 166.739072 224.64  L 169.257853 224.64  L 169.257853 49.809731  L 166.739072 49.809731  z " style="fill:#4b89b9;opacity:0.4;" />
   </g>
   <g id="patch_44">
    <path clip-path="url(#p1521180635)" d="M 169.257853 224.64  L 171.776633 224.64  L 171.776633 38.551509  L 169.257853 38.551509  z " style="fill:#4b89b9;opacity:0.4;" />
   </g>
   <g id="patch_45">
    <path clip-path="url(#p1521180635)" d="M 171.776633 224.64  L 174.295414 224.64  L 174.295414 29.913276  L 171.776633 29.913276  z " style="fill:#4b89b9;opacity:0.4;" />
   </g>
   <g id="patch_46">
    <path clip-path="url(#p1521180635)" d="M 174.295414 224.64  L 176.814194 224.64  L 176.814194 25.712765  L 174.295414 25.712765  z " style="fill:#4b89b9;opacity:0.4;" />
   </g>
   <g id="patch_47">
    <path clip-path="url(#p1521180635)" d="M 176.814194 224.64  L 179.332974 224.64  L 179.332974 20.059667  L 176.814194 20.059667  z " style="fill:#4b89b9;opacity:0.4;" />
   </g>
   <g id="patch_48">
    <path clip-path="url(#p1521180635)" d="M 179.332974 224.64  L 181.851755 224.64  L 181.851755 18.519124  L 179.332974 18.519124  z " style="fill:#4b89b9;opacity:0.4;" />
   </g>
   <g id="patch_49">
    <path clip-path="url(#p1521180635)" d="M 181.851755 224.64  L 184.370535 224.64  L 184.370535 17.554286  L 181.851755 17.554286  z " style="fill:#4b89b9;opacity:0.4;" />
   </g>
   <g id="patch_50">
    <path clip-path="url(#p1521180635)" d="M 184.370535 224.64  L 186.889316 224.64  L 186.889316 19.148134  L 184.370535 19.148134  z " style="fill:#4b89b9;opacity:0.4;" />
   </g>
   <g id="patch_51">
    <path clip-path="url(#p1521180635)" d="M 186.889316 224.64  L 189.408096 224.64  L 189.408096 21.368328  L 186.889316 21.368328  z " style="fill:#4b89b9;opacity:0.4;" />
   </g>
   <g id="patch_52">
    <path clip-path="url(#p1521180635)" d="M 189.408096 224.64  L 191.926877 224.64  L 191.926877 26.360433  L 189.408096 26.360433  z " style="fill:#4b89b9;opacity:0.4;" />
   </g>
   <g id="patch_53">
    <path clip-path="url(#p1521180635)" d="M 191.926877 224.64  L 194.445657 224.64  L 194.445657 31.906919  L 191.926877 31.906919  z " style="fill:#4b89b9;opacity:0.4;" />
   </g>
   <g id="patch_54">
    <path clip-path="url(#p1521180635)" d="M 194.445657 224.64  L 196.964438 224.64  L 196.964438 41.019576  L 194.445657 41.019576  z " style="fill:#4b89b9;opacity:0.4;" />
   </g>
   <g id="patch_55">
    <path clip-path="url(#p1521180635)" d="M 196.964438 224.64  L 199.483218 224.64  L 199.483218 47.208399  L 196.964438 47.208399  z " style="fill:#4b89b9;opacity:0.4;" />
   </g>
   <g id="patch_56">
    <path clip-path="url(#p1521180635)" d="M 199.483218 224.64  L 202.001999 224.64  L 202.001999 56.763495  L 199.483218 56.763495  z " style="fill:#4b89b9;opacity:0.4;" />
   </g>
   <g id="patch_57">
    <path clip-path="url(#p1521180635)" d="M 202.001999 224.64  L 204.520779 224.64  L 204.520779 65.529663  L 202.001999 65.529663  z " style="fill:#4b89b9;opacity:0.4;" />
   </g>
   <g id="patch_58">
    <path clip-path="url(#p1521180635)" d="M 204.520779 224.64  L 207.03956 224.64  L 207.03956 76.142882  L 204.520779 76.142882  z " style="fill:#4b89b9;opacity:0.4;" />
   </g>
   <g id="patch_59">
    <path clip-path="url(#p1521180635)" d="M 207.03956 224.64  L 209.55834 224.64  L 209.55834 86.20705  L 207.03956 86.20705  z " style="fill:#4b89b9;opacity:0.4;" />
   </g>
   <g id="patch_60">
    <path clip-path="url(#p1521180635)" d="M 209.55834 224.64  L 212.077121 224.64  L 212.077121 97.53457  L 209.55834 97.53457  z " style="fill:#4b89b9;opacity:0.4;" />
   </g>
   <g id="patch_61">
    <path clip-path="url(#p1521180635)" d="M 212.077121 224.64  L 214.595901 224.64  L 214.595901 107.963883  L 212.077121 107.963883  z " style="fill:#4b89b9;opacity:0.4;" />
   </g>
   <g id="patch_62">
    <path clip-path="url(#p1521180635)" d="M 214.595901 224.64  L 217.114681 224.64  L 217.114681 118.257267  L 214.595901 118.257267  z " style="fill:#4b89b9;opacity:0.4;" />
   </g>
   <g id="patch_63">
    <path clip-path="url(#p1521180635)" d="M 217.114681 224.64  L 219.633462 224.64  L 219.633462 129.696729  L 217.114681 129.696729  z " style="fill:#4b89b9;opacity:0.4;" />
   </g>
   <g id="patch_64">
    <path clip-path="url(#p1521180635)" d="M 219.633462 224.64  L 222.152242 224.64  L 222.152242 139.507694  L 219.633462 139.507694  z " style="fill:#4b89b9;opacity:0.4;" />
   </g>
   <g id="patch_65">
    <path clip-path="url(#p1521180635)" d="M 222.152242 224.64  L 224.671023 224.64  L 224.671023 149.225373  L 222.152242 149.225373  z " style="fill:#4b89b9;opacity:0.4;" />
   </g>
   <g id="patch_66">
    <path clip-path="url(#p1521180635)" d="M 224.671023 224.64  L 227.189803 224.64  L 227.189803 158.799126  L 224.671023 158.799126  z " style="fill:#4b89b9;opacity:0.4;" />
   </g>
   <g id="patch_67">
    <path clip-path="url(#p1521180635)" d="M 227.189803 224.64  L 229.708584 224.64  L 229.708584 168.079696  L 227.189803 168.079696  z " style="fill:#4b89b9;opacity:0.4;" />
   </g>
   <g id="patch_68">
    <path clip-path="url(#p1521180635)" d="M 229.708584 224.64  L 232.227364 224.64  L 232.227364 176.216853  L 229.708584 176.216853  z " style="fill:#4b89b9;opacity:0.4;" />
   </g>
   <g id="patch_69">
    <path clip-path="url(#p1521180635)" d="M 232.227364 224.64  L 234.746145 224.64  L 234.746145 182.600243  L 232.227364 182.600243  z " style="fill:#4b89b9;opacity:0.4;" />
   </g>
   <g id="patch_70">
    <path clip-path="url(#p1521180635)" d="M 234.746145 224.64  L 237.264925 224.64  L 237.264925 189.825868  L 234.746145 189.825868  z " style="fill:#4b89b9;opacity:0.4;" />
   </g>
   <g id="patch_71">
    <path clip-path="url(#p1521180635)" d="M 237.264925 224.64  L 239.783706 224.64  L 239.783706 196.233246  L 237.264925 196.233246  z " style="fill:#4b89b9;opacity:0.4;" />
   </g>
   <g id="patch_72">
    <path clip-path="url(#p1521180635)" d="M 239.783706 224.64  L 242.302486 224.64  L 242.302486 200.945494  L 239.783706 200.945494  z " style="fill:#4b89b9;opacity:0.4;" />
   </g>
   <g id="patch_73">
    <path clip-path="url(#p1521180635)" d="M 242.302486 224.64  L 244.821267 224.64  L 244.821267 205.921607  L 242.302486 205.921607  z " style="fill:#4b89b9;opacity:0.4;" />
   </g>
   <g id="patch_74">
    <path clip-path="url(#p1521180635)" d="M 244.821267 224.64  L 247.340047 224.64  L 247.340047 209.996849  L 244.821267 209.996849  z " style="fill:#4b89b9;opacity:0.4;" />
   </g>
   <g id="patch_75">
    <path clip-path="url(#p1521180635)" d="M 247.340047 224.64  L 249.858827 224.64  L 249.858827 213.373782  L 247.340047 213.373782  z " style="fill:#4b89b9;opacity:0.4;" />
   </g>
   <g id="patch_76">
    <path clip-path="url(#p1521180635)" d="M 249.858827 224.64  L 252.377608 224.64  L 252.377608 215.697923  L 249.858827 215.697923  z " style="fill:#4b89b9;opacity:0.4;" />
   </g>
   <g id="patch_77">
    <path clip-path="url(#p1521180635)" d="M 252.377608 224.64  L 254.896388 224.64  L 254.896388 217.715554  L 252.377608 217.715554  z " style="fill:#4b89b9;opacity:0.4;" />
   </g>
   <g id="patch_78">
    <path clip-path="url(#p1521180635)" d="M 254.896388 224.64  L 257.415169 224.64  L 257.415169 219.248101  L 254.896388 219.248101  z " style="fill:#4b89b9;opacity:0.4;" />
   </g>
   <g id="patch_79">
    <path clip-path="url(#p1521180635)" d="M 257.415169 224.64  L 259.933949 224.64  L 259.933949 220.679366  L 257.415169 220.679366  z " style="fill:#4b89b9;opacity:0.4;" />
   </g>
   <g id="patch_80">
    <path clip-path="url(#p1521180635)" d="M 259.933949 224.64  L 262.45273 224.64  L 262.45273 221.785465  L 259.933949 221.785465  z " style="fill:#4b89b9;opacity:0.4;" />
   </g>
   <g id="patch_81">
    <path clip-path="url(#p1521180635)" d="M 262.45273 224.64  L 264.97151 224.64  L 264.97151 222.385157  L 262.45273 222.385157  z " style="fill:#4b89b9;opacity:0.4;" />
   </g>
   <g id="patch_82">
    <path clip-path="url(#p1521180635)" d="M 264.97151 224.64  L 267.490291 224.64  L 267.490291 223.192743  L 264.97151 223.192743  z " style="fill:#4b89b9;opacity:0.4;" />
   </g>
   <g id="patch_83">
    <path clip-path="url(#p1521180635)" d="M 267.490291 224.64  L 270.009071 224.64  L 270.009071 223.619191  L 267.490291 223.619191  z " style="fill:#4b89b9;opacity:0.4;" />
   </g>
   <g id="patch_84">
    <path clip-path="url(#p1521180635)" d="M 270.009071 224.64  L 272.527852 224.64  L 272.527852 223.867063  L 270.009071 223.867063  z " style="fill:#4b89b9;opacity:0.4;" />
   </g>
   <g id="patch_85">
    <path clip-path="url(#p1521180635)" d="M 272.527852 224.64  L 275.046632 224.64  L 275.046632 224.093614  L 272.527852 224.093614  z " style="fill:#4b89b9;opacity:0.4;" />
   </g>
   <g id="patch_86">
    <path clip-path="url(#p1521180635)" d="M 275.046632 224.64  L 277.565413 224.64  L 277.565413 224.245536  L 275.046632 224.245536  z " style="fill:#4b89b9;opacity:0.4;" />
   </g>
   <g id="patch_87">
    <path clip-path="url(#p1521180635)" d="M 277.565413 224.64  L 280.084193 224.64  L 280.084193 224.389462  L 277.565413 224.389462  z " style="fill:#4b89b9;opacity:0.4;" />
   </g>
   <g id="patch_88">
    <path clip-path="url(#p1521180635)" d="M 280.084193 224.64  L 282.602974 224.64  L 282.602974 224.442768  L 280.084193 224.442768  z " style="fill:#4b89b9;opacity:0.4;" />
   </g>
   <g id="patch_89">
    <path clip-path="url(#p1521180635)" d="M 282.602974 224.64  L 285.121754 224.64  L 285.121754 224.546715  L 282.602974 224.546715  z " style="fill:#4b89b9;opacity:0.4;" />
   </g>
   <g id="patch_90">
    <path clip-path="url(#p1521180635)" d="M 285.121754 224.64  L 287.640534 224.64  L 287.640534 224.557376  L 285.121754 224.557376  z " style="fill:#4b89b9;opacity:0.4;" />
   </g>
   <g id="patch_91">
    <path clip-path="url(#p1521180635)" d="M 287.640534 224.64  L 290.159315 224.64  L 290.159315 224.610682  L 287.640534 224.610682  z " style="fill:#4b89b9;opacity:0.4;" />
   </g>
   <g id="patch_92">
    <path clip-path="url(#p1521180635)" d="M 290.159315 224.64  L 292.678095 224.64  L 292.678095 224.600021  L 290.159315 224.600021  z " style="fill:#4b89b9;opacity:0.4;" />
   </g>
   <g id="patch_93">
    <path clip-path="url(#p1521180635)" d="M 292.678095 224.64  L 295.196876 224.64  L 295.196876 224.621343  L 292.678095 224.621343  z " style="fill:#4b89b9;opacity:0.4;" />
   </g>
   <g id="patch_94">
    <path clip-path="url(#p1521180635)" d="M 295.196876 224.64  L 297.715656 224.64  L 297.715656 224.624008  L 295.196876 224.624008  z " style="fill:#4b89b9;opacity:0.4;" />
   </g>
   <g id="patch_95">
    <path clip-path="url(#p1521180635)" d="M 297.715656 224.64  L 300.234437 224.64  L 300.234437 224.632004  L 297.715656 224.632004  z " style="fill:#4b89b9;opacity:0.4;" />
   </g>
   <g id="patch_96">
    <path clip-path="url(#p1521180635)" d="M 300.234437 224.64  L 302.753217 224.64  L 302.753217 224.632004  L 300.234437 224.632004  z " style="fill:#4b89b9;opacity:0.4;" />
   </g>
   <g id="patch_97">
    <path clip-path="url(#p1521180635)" d="M 302.753217 224.64  L 305.271998 224.64  L 305.271998 224.632004  L 302.753217 224.632004  z " style="fill:#4b89b9;opacity:0.4;" />
   </g>
   <g id="patch_98">
    <path clip-path="url(#p1521180635)" d="M 305.271998 224.64  L 307.790778 224.64  L 307.790778 224.64  L 305.271998 224.64  z " style="fill:#4b89b9;opacity:0.4;" />
   </g>
   <g id="patch_99">
    <path clip-path="url(#p1521180635)" d="M 307.790778 224.64  L 310.309559 224.64  L 310.309559 224.64  L 307.790778 224.64  z " style="fill:#4b89b9;opacity:0.4;" />
   </g>
   <g id="patch_100">
    <path clip-path="url(#p1521180635)" d="M 310.309559 224.64  L 312.828339 224.64  L 312.828339 224.64  L 310.309559 224.64  z " style="fill:#4b89b9;opacity:0.4;" />
   </g>
   <g id="patch_101">
    <path clip-path="url(#p1521180635)" d="M 312.828339 224.64  L 315.34712 224.64  L 315.34712 224.64  L 312.828339 224.64  z " style="fill:#4b89b9;opacity:0.4;" />
   </g>
   <g id="patch_102">
    <path clip-path="url(#p1521180635)" d="M 315.34712 224.64  L 317.8659 224.64  L 317.8659 224.637335  L 315.34712 224.637335  z " style="fill:#4b89b9;opacity:0.4;" />
   </g>
   <g id="line2d_7">
    <path clip-path="url(#p1521180635)" d="M 278.54 224.64  L 278.54 7.2  " style="fill:none;stroke:#ff0000;stroke-linecap:square;stroke-width:1.5;" />
   </g>
   <g id="patch_103">
    <path d="M 10.7 224.64  L 10.7 7.2  " style="fill:none;stroke:#ffffff;stroke-linecap:square;stroke-linejoin:miter;" />
   </g>
   <g id="patch_104">
    <path d="M 345.5 224.64  L 345.5 7.2  " style="fill:none;stroke:#ffffff;stroke-linecap:square;stroke-linejoin:miter;" />
   </g>
   <g id="patch_105">
    <path d="M 10.7 224.64  L 345.5 224.64  " style="fill:none;stroke:#ffffff;stroke-linecap:square;stroke-linejoin:miter;" />
   </g>
   <g id="patch_106">
    <path d="M 10.7 7.2  L 345.5 7.2  " style="fill:none;stroke:#ffffff;stroke-linecap:square;stroke-linejoin:miter;" />
   </g>
  </g>
 </g>
 <defs>
  <clipPath id="p1521180635">
   <rect height="217.44" width="334.8" x="10.7" y="7.2" />
  </clipPath>
 </defs>
</svg>