<svg xmlns="http://www.w3.org/2000/svg" xmlns:ns1="http://www.w3.org/1999/xlink" height="248.518125pt" version="1.1" viewBox="0 0 352.7 248.518125" width="352.7pt">
 <defs>
  <style type="text/css">
*{stroke-linecap:butt;stroke-linejoin:round;white-space:pre;}
  </style>
 </defs>
 <g id="figure_1">
  <g id="patch_1">
   <path d="M 0 248.518125  L 352.7 248.518125  L 352.7 0  L 0 0  z " style="fill:none;" />
  </g>
  <g id="axes_1">
   <g id="patch_2">
    <path d="M 10.7 224.64  L 345.5 224.64  L 345.5 7.2  L 10.7 7.2  z " style="fill:none;" />
   </g>
   <g id="matplotlib.axis_1">
    <g id="xtick_1">
     <g id="line2d_1">
      <defs>
       <path d="M 0 0  L 0 3.5  " id="m7fd1f3ffb2" style="stroke:#555555;stroke-width:0.8;" />
      </defs>
      <g>
       <use style="fill:#555555;stroke:#555555;stroke-width:0.8;" x="27.291101" y="224.64" ns1:href="#m7fd1f3ffb2" />
      </g>
     </g>
     <g id="text_1">
      <text style="text-anchor:middle;font-family:-apple-system,BlinkMacSystemFont,&quot;Segoe UI&quot;,Roboto,&quot;Helvetica Neue&quot;,Arial,&quot;Noto Sans&quot;,sans-serif,&quot;Apple Color Emoji&quot;,&quot;Segoe UI Emoji&quot;,&quot;Segoe UI Symbol&quot;,&quot;Noto Color Emoji&quot;;font-size:0.7em;color:#6c757d" transform="rotate(-0, 27.291101, 239.238437)" x="27.291101" y="239.238437">&#8722;0.07</text>
     </g>
    </g>
    <g id="xtick_2">
     <g id="line2d_2">
      <g>
       <use style="fill:#555555;stroke:#555555;stroke-width:0.8;" x="70.838809" y="224.64" ns1:href="#m7fd1f3ffb2" />
      </g>
     </g>
     <g id="text_2">
      <text style="text-anchor:middle;font-family:-apple-system,BlinkMacSystemFont,&quot;Segoe UI&quot;,Roboto,&quot;Helvetica Neue&quot;,Arial,&quot;Noto Sans&quot;,sans-serif,&quot;Apple Color Emoji&quot;,&quot;Segoe UI Emoji&quot;,&quot;Segoe UI Symbol&quot;,&quot;Noto Color Emoji&quot;;font-size:0.7em;color:#6c757d" transform="rotate(-0, 70.838809, 239.238437)" x="70.838809" y="239.238437">&#8722;0.06</text>
     </g>
    </g>
    <g id="xtick_3">
     <g id="line2d_3">
      <g>
       <use style="fill:#555555;stroke:#555555;stroke-width:0.8;" x="114.386518" y="224.64" ns1:href="#m7fd1f3ffb2" />
      </g>
     </g>
     <g id="text_3">
      <text style="text-anchor:middle;font-family:-apple-system,BlinkMacSystemFont,&quot;Segoe UI&quot;,Roboto,&quot;Helvetica Neue&quot;,Arial,&quot;Noto Sans&quot;,sans-serif,&quot;Apple Color Emoji&quot;,&quot;Segoe UI Emoji&quot;,&quot;Segoe UI Symbol&quot;,&quot;Noto Color Emoji&quot;;font-size:0.7em;color:#6c757d" transform="rotate(-0, 114.386518, 239.238437)" x="114.386518" y="239.238437">&#8722;0.05</text>
     </g>
    </g>
    <g id="xtick_4">
     <g id="line2d_4">
      <g>
       <use style="fill:#555555;stroke:#555555;stroke-width:0.8;" x="157.934226" y="224.64" ns1:href="#m7fd1f3ffb2" />
      </g>
     </g>
     <g id="text_4">
      <text style="text-anchor:middle;font-family:-apple-system,BlinkMacSystemFont,&quot;Segoe UI&quot;,Roboto,&quot;Helvetica Neue&quot;,Arial,&quot;Noto Sans&quot;,sans-serif,&quot;Apple Color Emoji&quot;,&quot;Segoe UI Emoji&quot;,&quot;Segoe UI Symbol&quot;,&quot;Noto Color Emoji&quot;;font-size:0.7em;color:#6c757d" transform="rotate(-0, 157.934226, 239.238437)" x="157.934226" y="239.238437">&#8722;0.04</text>
     </g>
    </g>
    <g id="xtick_5">
     <g id="line2d_5">
      <g>
       <use style="fill:#555555;stroke:#555555;stroke-width:0.8;" x="201.481934" y="224.64" ns1:href="#m7fd1f3ffb2" />
      </g>
     </g>
     <g id="text_5">
      <text style="text-anchor:middle;font-family:-apple-system,BlinkMacSystemFont,&quot;Segoe UI&quot;,Roboto,&quot;Helvetica Neue&quot;,Arial,&quot;Noto Sans&quot;,sans-serif,&quot;Apple Color Emoji&quot;,&quot;Segoe UI Emoji&quot;,&quot;Segoe UI Symbol&quot;,&quot;Noto Color Emoji&quot;;font-size:0.7em;color:#6c757d" transform="rotate(-0, 201.481934, 239.238437)" x="201.481934" y="239.238437">&#8722;0.03</text>
     </g>
    </g>
    <g id="xtick_6">
     <g id="line2d_6">
      <g>
       <use style="fill:#555555;stroke:#555555;stroke-width:0.8;" x="245.029643" y="224.64" ns1:href="#m7fd1f3ffb2" />
      </g>
     </g>
     <g id="text_6">
      <text style="text-anchor:middle;font-family:-apple-system,BlinkMacSystemFont,&quot;Segoe UI&quot;,Roboto,&quot;Helvetica Neue&quot;,Arial,&quot;Noto Sans&quot;,sans-serif,&quot;Apple Color Emoji&quot;,&quot;Segoe UI Emoji&quot;,&quot;Segoe UI Symbol&quot;,&quot;Noto Color Emoji&quot;;font-size:0.7em;color:#6c757d" transform="rotate(-0, 245.029643, 239.238437)" x="245.029643" y="239.238437">&#8722;0.02</text>
     </g>
    </g>
    <g id="xtick_7">
     <g id="line2d_7">
      <g>
       <use style="fill:#555555;stroke:#555555;stroke-width:0.8;" x="288.577351" y="224.64" ns1:href="#m7fd1f3ffb2" />
      </g>
     </g>
     <g id="text_7">
      <text style="text-anchor:middle;font-family:-apple-system,BlinkMacSystemFont,&quot;Segoe UI&quot;,Roboto,&quot;Helvetica Neue&quot;,Arial,&quot;Noto Sans&quot;,sans-serif,&quot;Apple Color Emoji&quot;,&quot;Segoe UI Emoji&quot;,&quot;Segoe UI Symbol&quot;,&quot;Noto Color Emoji&quot;;font-size:0.7em;color:#6c757d" transform="rotate(-0, 288.577351, 239.238437)" x="288.577351" y="239.238437">&#8722;0.01</text>
     </g>
    </g>
    <g id="xtick_8">
     <g id="line2d_8">
      <g>
       <use style="fill:#555555;stroke:#555555;stroke-width:0.8;" x="332.125059" y="224.64" ns1:href="#m7fd1f3ffb2" />
      </g>
     </g>
     <g id="text_8">
      <text style="text-anchor:middle;font-family:-apple-system,BlinkMacSystemFont,&quot;Segoe UI&quot;,Roboto,&quot;Helvetica Neue&quot;,Arial,&quot;Noto Sans&quot;,sans-serif,&quot;Apple Color Emoji&quot;,&quot;Segoe UI Emoji&quot;,&quot;Segoe UI Symbol&quot;,&quot;Noto Color Emoji&quot;;font-size:0.7em;color:#6c757d" transform="rotate(-0, 332.125059, 239.238437)" x="332.125059" y="239.238437">0.00</text>
     </g>
    </g>
   </g>
   <g id="patch_3">
    <path clip-path="url(#pf6ffb91219)" d="M 25.918182 224.64  L 33.527273 224.64  L 33.527273 224.022755  L 25.918182 224.022755  z " style="fill:#4b89b9;opacity:0.4;" />
   </g>
   <g id="patch_4">
    <path clip-path="url(#pf6ffb91219)" d="M 33.527273 224.64  L 41.136364 224.64  L 41.136364 224.64  L 33.527273 224.64  z " style="fill:#4b89b9;opacity:0.4;" />
   </g>
   <g id="patch_5">
    <path clip-path="url(#pf6ffb91219)" d="M 41.136364 224.64  L 48.745455 224.64  L 48.745455 224.022755  L 41.136364 224.022755  z " style="fill:#4b89b9;opacity:0.4;" />
   </g>
   <g id="patch_6">
    <path clip-path="url(#pf6ffb91219)" d="M 48.745455 224.64  L 56.354545 224.64  L 56.354545 223.096887  L 48.745455 223.096887  z " style="fill:#4b89b9;opacity:0.4;" />
   </g>
   <g id="patch_7">
    <path clip-path="url(#pf6ffb91219)" d="M 56.354545 224.64  L 63.963636 224.64  L 63.963636 219.084795  L 56.354545 219.084795  z " style="fill:#4b89b9;opacity:0.4;" />
   </g>
   <g id="patch_8">
    <path clip-path="url(#pf6ffb91219)" d="M 63.963636 224.64  L 71.572727 224.64  L 71.572727 216.924437  L 63.963636 216.924437  z " style="fill:#4b89b9;opacity:0.4;" />
   </g>
   <g id="patch_9">
    <path clip-path="url(#pf6ffb91219)" d="M 71.572727 224.64  L 79.181818 224.64  L 79.181818 217.233059  L 71.572727 217.233059  z " style="fill:#4b89b9;opacity:0.4;" />
   </g>
   <g id="patch_10">
    <path clip-path="url(#pf6ffb91219)" d="M 79.181818 224.64  L 86.790909 224.64  L 86.790909 215.072702  L 79.181818 215.072702  z " style="fill:#4b89b9;opacity:0.4;" />
   </g>
   <g id="patch_11">
    <path clip-path="url(#pf6ffb91219)" d="M 86.790909 224.64  L 94.4 224.64  L 94.4 213.220967  L 86.790909 213.220967  z " style="fill:#4b89b9;opacity:0.4;" />
   </g>
   <g id="patch_12">
    <path clip-path="url(#pf6ffb91219)" d="M 94.4 224.64  L 102.009091 224.64  L 102.009091 201.801933  L 94.4 201.801933  z " style="fill:#4b89b9;opacity:0.4;" />
   </g>
   <g id="patch_13">
    <path clip-path="url(#pf6ffb91219)" d="M 102.009091 224.64  L 109.618182 224.64  L 109.618182 204.270913  L 102.009091 204.270913  z " style="fill:#4b89b9;opacity:0.4;" />
   </g>
   <g id="patch_14">
    <path clip-path="url(#pf6ffb91219)" d="M 109.618182 224.64  L 117.227273 224.64  L 117.227273 190.3829  L 109.618182 190.3829  z " style="fill:#4b89b9;opacity:0.4;" />
   </g>
   <g id="patch_15">
    <path clip-path="url(#pf6ffb91219)" d="M 117.227273 224.64  L 124.836364 224.64  L 124.836364 166.310343  L 117.227273 166.310343  z " style="fill:#4b89b9;opacity:0.4;" />
   </g>
   <g id="patch_16">
    <path clip-path="url(#pf6ffb91219)" d="M 124.836364 224.64  L 132.445455 224.64  L 132.445455 178.655244  L 124.836364 178.655244  z " style="fill:#4b89b9;opacity:0.4;" />
   </g>
   <g id="patch_17">
    <path clip-path="url(#pf6ffb91219)" d="M 132.445455 224.64  L 140.054545 224.64  L 140.054545 146.249879  L 132.445455 146.249879  z " style="fill:#4b89b9;opacity:0.4;" />
   </g>
   <g id="patch_18">
    <path clip-path="url(#pf6ffb91219)" d="M 140.054545 224.64  L 147.663636 224.64  L 147.663636 165.384475  L 140.054545 165.384475  z " style="fill:#4b89b9;opacity:0.4;" />
   </g>
   <g id="patch_19">
    <path clip-path="url(#pf6ffb91219)" d="M 147.663636 224.64  L 155.272727 224.64  L 155.272727 113.535891  L 147.663636 113.535891  z " style="fill:#4b89b9;opacity:0.4;" />
   </g>
   <g id="patch_20">
    <path clip-path="url(#pf6ffb91219)" d="M 155.272727 224.64  L 162.881818 224.64  L 162.881818 94.709917  L 155.272727 94.709917  z " style="fill:#4b89b9;opacity:0.4;" />
   </g>
   <g id="patch_21">
    <path clip-path="url(#pf6ffb91219)" d="M 162.881818 224.64  L 170.490909 224.64  L 170.490909 59.526949  L 162.881818 59.526949  z " style="fill:#4b89b9;opacity:0.4;" />
   </g>
   <g id="patch_22">
    <path clip-path="url(#pf6ffb91219)" d="M 170.490909 224.64  L 178.1 224.64  L 178.1 32.985412  L 170.490909 32.985412  z " style="fill:#4b89b9;opacity:0.4;" />
   </g>
   <g id="patch_23">
    <path clip-path="url(#pf6ffb91219)" d="M 178.1 224.64  L 185.709091 224.64  L 185.709091 61.687307  L 178.1 61.687307  z " style="fill:#4b89b9;opacity:0.4;" />
   </g>
   <g id="patch_24">
    <path clip-path="url(#pf6ffb91219)" d="M 185.709091 224.64  L 193.318182 224.64  L 193.318182 36.071637  L 185.709091 36.071637  z " style="fill:#4b89b9;opacity:0.4;" />
   </g>
   <g id="patch_25">
    <path clip-path="url(#pf6ffb91219)" d="M 193.318182 224.64  L 200.927273 224.64  L 200.927273 17.554286  L 193.318182 17.554286  z " style="fill:#4b89b9;opacity:0.4;" />
   </g>
   <g id="patch_26">
    <path clip-path="url(#pf6ffb91219)" d="M 200.927273 224.64  L 208.536364 224.64  L 208.536364 58.601082  L 200.927273 58.601082  z " style="fill:#4b89b9;opacity:0.4;" />
   </g>
   <g id="patch_27">
    <path clip-path="url(#pf6ffb91219)" d="M 208.536364 224.64  L 216.145455 224.64  L 216.145455 36.071637  L 208.536364 36.071637  z " style="fill:#4b89b9;opacity:0.4;" />
   </g>
   <g id="patch_28">
    <path clip-path="url(#pf6ffb91219)" d="M 216.145455 224.64  L 223.754545 224.64  L 223.754545 25.887094  L 216.145455 25.887094  z " style="fill:#4b89b9;opacity:0.4;" />
   </g>
   <g id="patch_29">
    <path clip-path="url(#pf6ffb91219)" d="M 223.754545 224.64  L 231.363636 224.64  L 231.363636 65.6994  L 223.754545 65.6994  z " style="fill:#4b89b9;opacity:0.4;" />
   </g>
   <g id="patch_30">
    <path clip-path="url(#pf6ffb91219)" d="M 231.363636 224.64  L 238.972727 224.64  L 238.972727 64.773532  L 231.363636 64.773532  z " style="fill:#4b89b9;opacity:0.4;" />
   </g>
   <g id="patch_31">
    <path clip-path="url(#pf6ffb91219)" d="M 238.972727 224.64  L 246.581818 224.64  L 246.581818 92.240937  L 238.972727 92.240937  z " style="fill:#4b89b9;opacity:0.4;" />
   </g>
   <g id="patch_32">
    <path clip-path="url(#pf6ffb91219)" d="M 246.581818 224.64  L 254.190909 224.64  L 254.190909 92.240937  L 246.581818 92.240937  z " style="fill:#4b89b9;opacity:0.4;" />
   </g>
   <g id="patch_33">
    <path clip-path="url(#pf6ffb91219)" d="M 254.190909 224.64  L 261.8 224.64  L 261.8 132.670488  L 254.190909 132.670488  z " style="fill:#4b89b9;opacity:0.4;" />
   </g>
   <g id="patch_34">
    <path clip-path="url(#pf6ffb91219)" d="M 261.8 224.64  L 269.409091 224.64  L 269.409091 153.039574  L 261.8 153.039574  z " style="fill:#4b89b9;opacity:0.4;" />
   </g>
   <g id="patch_35">
    <path clip-path="url(#pf6ffb91219)" d="M 269.409091 224.64  L 277.018182 224.64  L 277.018182 138.225693  L 269.409091 138.225693  z " style="fill:#4b89b9;opacity:0.4;" />
   </g>
   <g id="patch_36">
    <path clip-path="url(#pf6ffb91219)" d="M 277.018182 224.64  L 284.627273 224.64  L 284.627273 152.730952  L 277.018182 152.730952  z " style="fill:#4b89b9;opacity:0.4;" />
   </g>
   <g id="patch_37">
    <path clip-path="url(#pf6ffb91219)" d="M 284.627273 224.64  L 292.236364 224.64  L 292.236364 165.693098  L 284.627273 165.693098  z " style="fill:#4b89b9;opacity:0.4;" />
   </g>
   <g id="patch_38">
    <path clip-path="url(#pf6ffb91219)" d="M 292.236364 224.64  L 299.845455 224.64  L 299.845455 195.629483  L 292.236364 195.629483  z " style="fill:#4b89b9;opacity:0.4;" />
   </g>
   <g id="patch_39">
    <path clip-path="url(#pf6ffb91219)" d="M 299.845455 224.64  L 307.454545 224.64  L 307.454545 209.517496  L 299.845455 209.517496  z " style="fill:#4b89b9;opacity:0.4;" />
   </g>
   <g id="patch_40">
    <path clip-path="url(#pf6ffb91219)" d="M 307.454545 224.64  L 315.063636 224.64  L 315.063636 222.479642  L 307.454545 222.479642  z " style="fill:#4b89b9;opacity:0.4;" />
   </g>
   <g id="patch_41">
    <path clip-path="url(#pf6ffb91219)" d="M 315.063636 224.64  L 322.672727 224.64  L 322.672727 224.022755  L 315.063636 224.022755  z " style="fill:#4b89b9;opacity:0.4;" />
   </g>
   <g id="patch_42">
    <path clip-path="url(#pf6ffb91219)" d="M 322.672727 224.64  L 330.281818 224.64  L 330.281818 223.40551  L 322.672727 223.40551  z " style="fill:#4b89b9;opacity:0.4;" />
   </g>
   <g id="line2d_9">
    <path clip-path="url(#pf6ffb91219)" d="M 266.803497 224.64  L 266.803497 7.2  " style="fill:none;stroke:#ff0000;stroke-linecap:square;stroke-width:1.5;" />
   </g>
   <g id="line2d_10">
    <path clip-path="url(#pf6ffb91219)" d="M 49.064955 224.64  L 49.064955 7.2  " style="fill:none;stroke:#008000;stroke-linecap:square;stroke-width:1.5;" />
   </g>
   <g id="patch_43">
    <path d="M 10.7 224.64  L 10.7 7.2  " style="fill:none;stroke:#ffffff;stroke-linecap:square;stroke-linejoin:miter;" />
   </g>
   <g id="patch_44">
    <path d="M 345.5 224.64  L 345.5 7.2  " style="fill:none;stroke:#ffffff;stroke-linecap:square;stroke-linejoin:miter;" />
   </g>
   <g id="patch_45">
    <path d="M 10.7 224.64  L 345.5 224.64  " style="fill:none;stroke:#ffffff;stroke-linecap:square;stroke-linejoin:miter;" />
   </g>
   <g id="patch_46">
    <path d="M 10.7 7.2  L 345.5 7.2  " style="fill:none;stroke:#ffffff;stroke-linecap:square;stroke-linejoin:miter;" />
   </g>
  </g>
 </g>
 <defs>
  <clipPath id="pf6ffb91219">
   <rect height="217.44" width="334.8" x="10.7" y="7.2" />
  </clipPath>
 </defs>
</svg>