<svg xmlns="http://www.w3.org/2000/svg" xmlns:ns1="http://www.w3.org/1999/xlink" height="248.518125pt" version="1.1" viewBox="0 0 355.88125 248.518125" width="355.88125pt">
 <defs>
  <style type="text/css">
*{stroke-linecap:butt;stroke-linejoin:round;white-space:pre;}
  </style>
 </defs>
 <g id="figure_1">
  <g id="patch_1">
   <path d="M 0 248.518125  L 355.88125 248.518125  L 355.88125 0  L 0 0  z " style="fill:none;" />
  </g>
  <g id="axes_1">
   <g id="patch_2">
    <path d="M 10.7 224.64  L 345.5 224.64  L 345.5 7.2  L 10.7 7.2  z " style="fill:none;" />
   </g>
   <g id="matplotlib.axis_1">
    <g id="xtick_1">
     <g id="line2d_1">
      <defs>
       <path d="M 0 0  L 0 3.5  " id="m93b2edab93" style="stroke:#555555;stroke-width:0.8;" />
      </defs>
      <g>
       <use style="fill:#555555;stroke:#555555;stroke-width:0.8;" x="10.7" y="224.64" ns1:href="#m93b2edab93" />
      </g>
     </g>
     <g id="text_1">
      <text style="text-anchor:middle;font-family:-apple-system,BlinkMacSystemFont,&quot;Segoe UI&quot;,Roboto,&quot;Helvetica Neue&quot;,Arial,&quot;Noto Sans&quot;,sans-serif,&quot;Apple Color Emoji&quot;,&quot;Segoe UI Emoji&quot;,&quot;Segoe UI Symbol&quot;,&quot;Noto Color Emoji&quot;;font-size:0.7em;color:#6c757d" transform="rotate(-0, 10.7, 239.238438)" x="10.7" y="239.238438">3</text>
     </g>
    </g>
    <g id="xtick_2">
     <g id="line2d_2">
      <g>
       <use style="fill:#555555;stroke:#555555;stroke-width:0.8;" x="77.66" y="224.64" ns1:href="#m93b2edab93" />
      </g>
     </g>
     <g id="text_2">
      <text style="text-anchor:middle;font-family:-apple-system,BlinkMacSystemFont,&quot;Segoe UI&quot;,Roboto,&quot;Helvetica Neue&quot;,Arial,&quot;Noto Sans&quot;,sans-serif,&quot;Apple Color Emoji&quot;,&quot;Segoe UI Emoji&quot;,&quot;Segoe UI Symbol&quot;,&quot;Noto Color Emoji&quot;;font-size:0.7em;color:#6c757d" transform="rotate(-0, 77.66, 239.238438)" x="77.66" y="239.238438">4</text>
     </g>
    </g>
    <g id="xtick_3">
     <g id="line2d_3">
      <g>
       <use style="fill:#555555;stroke:#555555;stroke-width:0.8;" x="144.62" y="224.64" ns1:href="#m93b2edab93" />
      </g>
     </g>
     <g id="text_3">
      <text style="text-anchor:middle;font-family:-apple-system,BlinkMacSystemFont,&quot;Segoe UI&quot;,Roboto,&quot;Helvetica Neue&quot;,Arial,&quot;Noto Sans&quot;,sans-serif,&quot;Apple Color Emoji&quot;,&quot;Segoe UI Emoji&quot;,&quot;Segoe UI Symbol&quot;,&quot;Noto Color Emoji&quot;;font-size:0.7em;color:#6c757d" transform="rotate(-0, 144.62, 239.238438)" x="144.62" y="239.238438">5</text>
     </g>
    </g>
    <g id="xtick_4">
     <g id="line2d_4">
      <g>
       <use style="fill:#555555;stroke:#555555;stroke-width:0.8;" x="211.58" y="224.64" ns1:href="#m93b2edab93" />
      </g>
     </g>
     <g id="text_4">
      <text style="text-anchor:middle;font-family:-apple-system,BlinkMacSystemFont,&quot;Segoe UI&quot;,Roboto,&quot;Helvetica Neue&quot;,Arial,&quot;Noto Sans&quot;,sans-serif,&quot;Apple Color Emoji&quot;,&quot;Segoe UI Emoji&quot;,&quot;Segoe UI Symbol&quot;,&quot;Noto Color Emoji&quot;;font-size:0.7em;color:#6c757d" transform="rotate(-0, 211.58, 239.238438)" x="211.58" y="239.238438">6</text>
     </g>
    </g>
    <g id="xtick_5">
     <g id="line2d_5">
      <g>
       <use style="fill:#555555;stroke:#555555;stroke-width:0.8;" x="278.54" y="224.64" ns1:href="#m93b2edab93" />
      </g>
     </g>
     <g id="text_5">
      <text style="text-anchor:middle;font-family:-apple-system,BlinkMacSystemFont,&quot;Segoe UI&quot;,Roboto,&quot;Helvetica Neue&quot;,Arial,&quot;Noto Sans&quot;,sans-serif,&quot;Apple Color Emoji&quot;,&quot;Segoe UI Emoji&quot;,&quot;Segoe UI Symbol&quot;,&quot;Noto Color Emoji&quot;;font-size:0.7em;color:#6c757d" transform="rotate(-0, 278.54, 239.238438)" x="278.54" y="239.238438">7</text>
     </g>
    </g>
    <g id="xtick_6">
     <g id="line2d_6">
      <g>
       <use style="fill:#555555;stroke:#555555;stroke-width:0.8;" x="345.5" y="224.64" ns1:href="#m93b2edab93" />
      </g>
     </g>
     <g id="text_6">
      <text style="text-anchor:middle;font-family:-apple-system,BlinkMacSystemFont,&quot;Segoe UI&quot;,Roboto,&quot;Helvetica Neue&quot;,Arial,&quot;Noto Sans&quot;,sans-serif,&quot;Apple Color Emoji&quot;,&quot;Segoe UI Emoji&quot;,&quot;Segoe UI Symbol&quot;,&quot;Noto Color Emoji&quot;;font-size:0.7em;color:#6c757d" transform="rotate(-0, 345.5, 239.238438)" x="345.5" y="239.238438">8</text>
     </g>
    </g>
   </g>
   <g id="patch_3">
    <path clip-path="url(#pdcd6afc03a)" d="M 74.767006 224.64  L 77.106459 224.64  L 77.106459 224.637355  L 74.767006 224.637355  z " style="fill:#4b89b9;opacity:0.4;" />
   </g>
   <g id="patch_4">
    <path clip-path="url(#pdcd6afc03a)" d="M 77.106459 224.64  L 79.445913 224.64  L 79.445913 224.64  L 77.106459 224.64  z " style="fill:#4b89b9;opacity:0.4;" />
   </g>
   <g id="patch_5">
    <path clip-path="url(#pdcd6afc03a)" d="M 79.445913 224.64  L 81.785367 224.64  L 81.785367 224.637355  L 79.445913 224.637355  z " style="fill:#4b89b9;opacity:0.4;" />
   </g>
   <g id="patch_6">
    <path clip-path="url(#pdcd6afc03a)" d="M 81.785367 224.64  L 84.12482 224.64  L 84.12482 224.64  L 81.785367 224.64  z " style="fill:#4b89b9;opacity:0.4;" />
   </g>
   <g id="patch_7">
    <path clip-path="url(#pdcd6afc03a)" d="M 84.12482 224.64  L 86.464274 224.64  L 86.464274 224.64  L 84.12482 224.64  z " style="fill:#4b89b9;opacity:0.4;" />
   </g>
   <g id="patch_8">
    <path clip-path="url(#pdcd6afc03a)" d="M 86.464274 224.64  L 88.803728 224.64  L 88.803728 224.626775  L 86.464274 224.626775  z " style="fill:#4b89b9;opacity:0.4;" />
   </g>
   <g id="patch_9">
    <path clip-path="url(#pdcd6afc03a)" d="M 88.803728 224.64  L 91.143181 224.64  L 91.143181 224.62413  L 88.803728 224.62413  z " style="fill:#4b89b9;opacity:0.4;" />
   </g>
   <g id="patch_10">
    <path clip-path="url(#pdcd6afc03a)" d="M 91.143181 224.64  L 93.482635 224.64  L 93.482635 224.602971  L 91.143181 224.602971  z " style="fill:#4b89b9;opacity:0.4;" />
   </g>
   <g id="patch_11">
    <path clip-path="url(#pdcd6afc03a)" d="M 93.482635 224.64  L 95.822089 224.64  L 95.822089 224.584456  L 93.482635 224.584456  z " style="fill:#4b89b9;opacity:0.4;" />
   </g>
   <g id="patch_12">
    <path clip-path="url(#pdcd6afc03a)" d="M 95.822089 224.64  L 98.161542 224.64  L 98.161542 224.558007  L 95.822089 224.558007  z " style="fill:#4b89b9;opacity:0.4;" />
   </g>
   <g id="patch_13">
    <path clip-path="url(#pdcd6afc03a)" d="M 98.161542 224.64  L 100.500996 224.64  L 100.500996 224.507753  L 98.161542 224.507753  z " style="fill:#4b89b9;opacity:0.4;" />
   </g>
   <g id="patch_14">
    <path clip-path="url(#pdcd6afc03a)" d="M 100.500996 224.64  L 102.84045 224.64  L 102.84045 224.43105  L 100.500996 224.43105  z " style="fill:#4b89b9;opacity:0.4;" />
   </g>
   <g id="patch_15">
    <path clip-path="url(#pdcd6afc03a)" d="M 102.84045 224.64  L 105.179903 224.64  L 105.179903 224.372861  L 102.84045 224.372861  z " style="fill:#4b89b9;opacity:0.4;" />
   </g>
   <g id="patch_16">
    <path clip-path="url(#pdcd6afc03a)" d="M 105.179903 224.64  L 107.519357 224.64  L 107.519357 224.203585  L 105.179903 224.203585  z " style="fill:#4b89b9;opacity:0.4;" />
   </g>
   <g id="patch_17">
    <path clip-path="url(#pdcd6afc03a)" d="M 107.519357 224.64  L 109.858811 224.64  L 109.858811 223.984054  L 107.519357 223.984054  z " style="fill:#4b89b9;opacity:0.4;" />
   </g>
   <g id="patch_18">
    <path clip-path="url(#pdcd6afc03a)" d="M 109.858811 224.64  L 112.198264 224.64  L 112.198264 223.698401  L 109.858811 223.698401  z " style="fill:#4b89b9;opacity:0.4;" />
   </g>
   <g id="patch_19">
    <path clip-path="url(#pdcd6afc03a)" d="M 112.198264 224.64  L 114.537718 224.64  L 114.537718 223.362493  L 112.198264 223.362493  z " style="fill:#4b89b9;opacity:0.4;" />
   </g>
   <g id="patch_20">
    <path clip-path="url(#pdcd6afc03a)" d="M 114.537718 224.64  L 116.877172 224.64  L 116.877172 222.793831  L 114.537718 222.793831  z " style="fill:#4b89b9;opacity:0.4;" />
   </g>
   <g id="patch_21">
    <path clip-path="url(#pdcd6afc03a)" d="M 116.877172 224.64  L 119.216625 224.64  L 119.216625 221.741144  L 116.877172 221.741144  z " style="fill:#4b89b9;opacity:0.4;" />
   </g>
   <g id="patch_22">
    <path clip-path="url(#pdcd6afc03a)" d="M 119.216625 224.64  L 121.556079 224.64  L 121.556079 220.955596  L 119.216625 220.955596  z " style="fill:#4b89b9;opacity:0.4;" />
   </g>
   <g id="patch_23">
    <path clip-path="url(#pdcd6afc03a)" d="M 121.556079 224.64  L 123.895533 224.64  L 123.895533 219.469139  L 121.556079 219.469139  z " style="fill:#4b89b9;opacity:0.4;" />
   </g>
   <g id="patch_24">
    <path clip-path="url(#pdcd6afc03a)" d="M 123.895533 224.64  L 126.234986 224.64  L 126.234986 217.834565  L 123.895533 217.834565  z " style="fill:#4b89b9;opacity:0.4;" />
   </g>
   <g id="patch_25">
    <path clip-path="url(#pdcd6afc03a)" d="M 126.234986 224.64  L 128.57444 224.64  L 128.57444 215.136724  L 126.234986 215.136724  z " style="fill:#4b89b9;opacity:0.4;" />
   </g>
   <g id="patch_26">
    <path clip-path="url(#pdcd6afc03a)" d="M 128.57444 224.64  L 130.913894 224.64  L 130.913894 212.37805  L 128.57444 212.37805  z " style="fill:#4b89b9;opacity:0.4;" />
   </g>
   <g id="patch_27">
    <path clip-path="url(#pdcd6afc03a)" d="M 130.913894 224.64  L 133.253347 224.64  L 133.253347 208.847053  L 130.913894 208.847053  z " style="fill:#4b89b9;opacity:0.4;" />
   </g>
   <g id="patch_28">
    <path clip-path="url(#pdcd6afc03a)" d="M 133.253347 224.64  L 135.592801 224.64  L 135.592801 204.310978  L 133.253347 204.310978  z " style="fill:#4b89b9;opacity:0.4;" />
   </g>
   <g id="patch_29">
    <path clip-path="url(#pdcd6afc03a)" d="M 135.592801 224.64  L 137.932255 224.64  L 137.932255 198.595259  L 135.592801 198.595259  z " style="fill:#4b89b9;opacity:0.4;" />
   </g>
   <g id="patch_30">
    <path clip-path="url(#pdcd6afc03a)" d="M 137.932255 224.64  L 140.271708 224.64  L 140.271708 192.583306  L 137.932255 192.583306  z " style="fill:#4b89b9;opacity:0.4;" />
   </g>
   <g id="patch_31">
    <path clip-path="url(#pdcd6afc03a)" d="M 140.271708 224.64  L 142.611162 224.64  L 142.611162 185.80961  L 140.271708 185.80961  z " style="fill:#4b89b9;opacity:0.4;" />
   </g>
   <g id="patch_32">
    <path clip-path="url(#pdcd6afc03a)" d="M 142.611162 224.64  L 144.950616 224.64  L 144.950616 177.930329  L 142.611162 177.930329  z " style="fill:#4b89b9;opacity:0.4;" />
   </g>
   <g id="patch_33">
    <path clip-path="url(#pdcd6afc03a)" d="M 144.950616 224.64  L 147.290069 224.64  L 147.290069 168.260422  L 144.950616 168.260422  z " style="fill:#4b89b9;opacity:0.4;" />
   </g>
   <g id="patch_34">
    <path clip-path="url(#pdcd6afc03a)" d="M 147.290069 224.64  L 149.629523 224.64  L 149.629523 157.527248  L 147.290069 157.527248  z " style="fill:#4b89b9;opacity:0.4;" />
   </g>
   <g id="patch_35">
    <path clip-path="url(#pdcd6afc03a)" d="M 149.629523 224.64  L 151.968977 224.64  L 151.968977 147.053279  L 149.629523 147.053279  z " style="fill:#4b89b9;opacity:0.4;" />
   </g>
   <g id="patch_36">
    <path clip-path="url(#pdcd6afc03a)" d="M 151.968977 224.64  L 154.30843 224.64  L 154.30843 136.653368  L 151.968977 136.653368  z " style="fill:#4b89b9;opacity:0.4;" />
   </g>
   <g id="patch_37">
    <path clip-path="url(#pdcd6afc03a)" d="M 154.30843 224.64  L 156.647884 224.64  L 156.647884 124.248591  L 154.30843 124.248591  z " style="fill:#4b89b9;opacity:0.4;" />
   </g>
   <g id="patch_38">
    <path clip-path="url(#pdcd6afc03a)" d="M 156.647884 224.64  L 158.987338 224.64  L 158.987338 110.862541  L 156.647884 110.862541  z " style="fill:#4b89b9;opacity:0.4;" />
   </g>
   <g id="patch_39">
    <path clip-path="url(#pdcd6afc03a)" d="M 158.987338 224.64  L 161.326791 224.64  L 161.326791 99.523675  L 158.987338 99.523675  z " style="fill:#4b89b9;opacity:0.4;" />
   </g>
   <g id="patch_40">
    <path clip-path="url(#pdcd6afc03a)" d="M 161.326791 224.64  L 163.666245 224.64  L 163.666245 87.579119  L 161.326791 87.579119  z " style="fill:#4b89b9;opacity:0.4;" />
   </g>
   <g id="patch_41">
    <path clip-path="url(#pdcd6afc03a)" d="M 163.666245 224.64  L 166.005699 224.64  L 166.005699 77.041671  L 163.666245 77.041671  z " style="fill:#4b89b9;opacity:0.4;" />
   </g>
   <g id="patch_42">
    <path clip-path="url(#pdcd6afc03a)" d="M 166.005699 224.64  L 168.345152 224.64  L 168.345152 65.954075  L 166.005699 65.954075  z " style="fill:#4b89b9;opacity:0.4;" />
   </g>
   <g id="patch_43">
    <path clip-path="url(#pdcd6afc03a)" d="M 168.345152 224.64  L 170.684606 224.64  L 170.684606 57.691277  L 168.345152 57.691277  z " style="fill:#4b89b9;opacity:0.4;" />
   </g>
   <g id="patch_44">
    <path clip-path="url(#pdcd6afc03a)" d="M 170.684606 224.64  L 173.02406 224.64  L 173.02406 48.962969  L 170.684606 48.962969  z " style="fill:#4b89b9;opacity:0.4;" />
   </g>
   <g id="patch_45">
    <path clip-path="url(#pdcd6afc03a)" d="M 173.02406 224.64  L 175.363513 224.64  L 175.363513 42.276556  L 173.02406 42.276556  z " style="fill:#4b89b9;opacity:0.4;" />
   </g>
   <g id="patch_46">
    <path clip-path="url(#pdcd6afc03a)" d="M 175.363513 224.64  L 177.702967 224.64  L 177.702967 39.435889  L 175.363513 39.435889  z " style="fill:#4b89b9;opacity:0.4;" />
   </g>
   <g id="patch_47">
    <path clip-path="url(#pdcd6afc03a)" d="M 177.702967 224.64  L 180.042421 224.64  L 180.042421 34.14336  L 177.702967 34.14336  z " style="fill:#4b89b9;opacity:0.4;" />
   </g>
   <g id="patch_48">
    <path clip-path="url(#pdcd6afc03a)" d="M 180.042421 224.64  L 182.381874 224.64  L 182.381874 33.01397  L 180.042421 33.01397  z " style="fill:#4b89b9;opacity:0.4;" />
   </g>
   <g id="patch_49">
    <path clip-path="url(#pdcd6afc03a)" d="M 182.381874 224.64  L 184.721328 224.64  L 184.721328 34.209484  L 182.381874 34.209484  z " style="fill:#4b89b9;opacity:0.4;" />
   </g>
   <g id="patch_50">
    <path clip-path="url(#pdcd6afc03a)" d="M 184.721328 224.64  L 187.060782 224.64  L 187.060782 35.933986  L 184.721328 35.933986  z " style="fill:#4b89b9;opacity:0.4;" />
   </g>
   <g id="patch_51">
    <path clip-path="url(#pdcd6afc03a)" d="M 187.060782 224.64  L 189.400235 224.64  L 189.400235 38.179541  L 187.060782 38.179541  z " style="fill:#4b89b9;opacity:0.4;" />
   </g>
   <g id="patch_52">
    <path clip-path="url(#pdcd6afc03a)" d="M 189.400235 224.64  L 191.739689 224.64  L 191.739689 41.980323  L 189.400235 41.980323  z " style="fill:#4b89b9;opacity:0.4;" />
   </g>
   <g id="patch_53">
    <path clip-path="url(#pdcd6afc03a)" d="M 191.739689 224.64  L 194.079143 224.64  L 194.079143 48.185356  L 191.739689 48.185356  z " style="fill:#4b89b9;opacity:0.4;" />
   </g>
   <g id="patch_54">
    <path clip-path="url(#pdcd6afc03a)" d="M 194.079143 224.64  L 196.418596 224.64  L 196.418596 52.126319  L 194.079143 52.126319  z " style="fill:#4b89b9;opacity:0.4;" />
   </g>
   <g id="patch_55">
    <path clip-path="url(#pdcd6afc03a)" d="M 196.418596 224.64  L 198.75805 224.64  L 198.75805 59.193604  L 196.418596 59.193604  z " style="fill:#4b89b9;opacity:0.4;" />
   </g>
   <g id="patch_56">
    <path clip-path="url(#pdcd6afc03a)" d="M 198.75805 224.64  L 201.097504 224.64  L 201.097504 66.207989  L 198.75805 66.207989  z " style="fill:#4b89b9;opacity:0.4;" />
   </g>
   <g id="patch_57">
    <path clip-path="url(#pdcd6afc03a)" d="M 201.097504 224.64  L 203.436957 224.64  L 203.436957 74.473432  L 201.097504 74.473432  z " style="fill:#4b89b9;opacity:0.4;" />
   </g>
   <g id="patch_58">
    <path clip-path="url(#pdcd6afc03a)" d="M 203.436957 224.64  L 205.776411 224.64  L 205.776411 83.077428  L 203.436957 83.077428  z " style="fill:#4b89b9;opacity:0.4;" />
   </g>
   <g id="patch_59">
    <path clip-path="url(#pdcd6afc03a)" d="M 205.776411 224.64  L 208.115865 224.64  L 208.115865 91.170949  L 205.776411 91.170949  z " style="fill:#4b89b9;opacity:0.4;" />
   </g>
   <g id="patch_60">
    <path clip-path="url(#pdcd6afc03a)" d="M 208.115865 224.64  L 210.455318 224.64  L 210.455318 101.885608  L 208.115865 101.885608  z " style="fill:#4b89b9;opacity:0.4;" />
   </g>
   <g id="patch_61">
    <path clip-path="url(#pdcd6afc03a)" d="M 210.455318 224.64  L 212.794772 224.64  L 212.794772 110.047899  L 210.455318 110.047899  z " style="fill:#4b89b9;opacity:0.4;" />
   </g>
   <g id="patch_62">
    <path clip-path="url(#pdcd6afc03a)" d="M 212.794772 224.64  L 215.134226 224.64  L 215.134226 119.180883  L 212.794772 119.180883  z " style="fill:#4b89b9;opacity:0.4;" />
   </g>
   <g id="patch_63">
    <path clip-path="url(#pdcd6afc03a)" d="M 215.134226 224.64  L 217.473679 224.64  L 217.473679 129.07561  L 215.134226 129.07561  z " style="fill:#4b89b9;opacity:0.4;" />
   </g>
   <g id="patch_64">
    <path clip-path="url(#pdcd6afc03a)" d="M 217.473679 224.64  L 219.813133 224.64  L 219.813133 137.658446  L 217.473679 137.658446  z " style="fill:#4b89b9;opacity:0.4;" />
   </g>
   <g id="patch_65">
    <path clip-path="url(#pdcd6afc03a)" d="M 219.813133 224.64  L 222.152587 224.64  L 222.152587 146.820524  L 219.813133 146.820524  z " style="fill:#4b89b9;opacity:0.4;" />
   </g>
   <g id="patch_66">
    <path clip-path="url(#pdcd6afc03a)" d="M 222.152587 224.64  L 224.49204 224.64  L 224.49204 154.940495  L 222.152587 154.940495  z " style="fill:#4b89b9;opacity:0.4;" />
   </g>
   <g id="patch_67">
    <path clip-path="url(#pdcd6afc03a)" d="M 224.49204 224.64  L 226.831494 224.64  L 226.831494 163.369924  L 224.49204 163.369924  z " style="fill:#4b89b9;opacity:0.4;" />
   </g>
   <g id="patch_68">
    <path clip-path="url(#pdcd6afc03a)" d="M 226.831494 224.64  L 229.170948 224.64  L 229.170948 171.138118  L 226.831494 171.138118  z " style="fill:#4b89b9;opacity:0.4;" />
   </g>
   <g id="patch_69">
    <path clip-path="url(#pdcd6afc03a)" d="M 229.170948 224.64  L 231.510401 224.64  L 231.510401 178.366744  L 229.170948 178.366744  z " style="fill:#4b89b9;opacity:0.4;" />
   </g>
   <g id="patch_70">
    <path clip-path="url(#pdcd6afc03a)" d="M 231.510401 224.64  L 233.849855 224.64  L 233.849855 185.039932  L 231.510401 185.039932  z " style="fill:#4b89b9;opacity:0.4;" />
   </g>
   <g id="patch_71">
    <path clip-path="url(#pdcd6afc03a)" d="M 233.849855 224.64  L 236.189309 224.64  L 236.189309 190.469998  L 233.849855 190.469998  z " style="fill:#4b89b9;opacity:0.4;" />
   </g>
   <g id="patch_72">
    <path clip-path="url(#pdcd6afc03a)" d="M 236.189309 224.64  L 238.528762 224.64  L 238.528762 195.709627  L 236.189309 195.709627  z " style="fill:#4b89b9;opacity:0.4;" />
   </g>
   <g id="patch_73">
    <path clip-path="url(#pdcd6afc03a)" d="M 238.528762 224.64  L 240.868216 224.64  L 240.868216 200.507551  L 238.528762 200.507551  z " style="fill:#4b89b9;opacity:0.4;" />
   </g>
   <g id="patch_74">
    <path clip-path="url(#pdcd6afc03a)" d="M 240.868216 224.64  L 243.20767 224.64  L 243.20767 204.919314  L 240.868216 204.919314  z " style="fill:#4b89b9;opacity:0.4;" />
   </g>
   <g id="patch_75">
    <path clip-path="url(#pdcd6afc03a)" d="M 243.20767 224.64  L 245.547123 224.64  L 245.547123 208.611653  L 243.20767 208.611653  z " style="fill:#4b89b9;opacity:0.4;" />
   </g>
   <g id="patch_76">
    <path clip-path="url(#pdcd6afc03a)" d="M 245.547123 224.64  L 247.886577 224.64  L 247.886577 211.605727  L 245.547123 211.605727  z " style="fill:#4b89b9;opacity:0.4;" />
   </g>
   <g id="patch_77">
    <path clip-path="url(#pdcd6afc03a)" d="M 247.886577 224.64  L 250.226031 224.64  L 250.226031 214.158096  L 247.886577 214.158096  z " style="fill:#4b89b9;opacity:0.4;" />
   </g>
   <g id="patch_78">
    <path clip-path="url(#pdcd6afc03a)" d="M 250.226031 224.64  L 252.565484 224.64  L 252.565484 216.535898  L 250.226031 216.535898  z " style="fill:#4b89b9;opacity:0.4;" />
   </g>
   <g id="patch_79">
    <path clip-path="url(#pdcd6afc03a)" d="M 252.565484 224.64  L 254.904938 224.64  L 254.904938 218.376778  L 252.565484 218.376778  z " style="fill:#4b89b9;opacity:0.4;" />
   </g>
   <g id="patch_80">
    <path clip-path="url(#pdcd6afc03a)" d="M 254.904938 224.64  L 257.244392 224.64  L 257.244392 219.805046  L 254.904938 219.805046  z " style="fill:#4b89b9;opacity:0.4;" />
   </g>
   <g id="patch_81">
    <path clip-path="url(#pdcd6afc03a)" d="M 257.244392 224.64  L 259.583846 224.64  L 259.583846 220.847154  L 257.244392 220.847154  z " style="fill:#4b89b9;opacity:0.4;" />
   </g>
   <g id="patch_82">
    <path clip-path="url(#pdcd6afc03a)" d="M 259.583846 224.64  L 261.923299 224.64  L 261.923299 221.823137  L 259.583846 221.823137  z " style="fill:#4b89b9;opacity:0.4;" />
   </g>
   <g id="patch_83">
    <path clip-path="url(#pdcd6afc03a)" d="M 261.923299 224.64  L 264.262753 224.64  L 264.262753 222.489662  L 261.923299 222.489662  z " style="fill:#4b89b9;opacity:0.4;" />
   </g>
   <g id="patch_84">
    <path clip-path="url(#pdcd6afc03a)" d="M 264.262753 224.64  L 266.602207 224.64  L 266.602207 223.058325  L 264.262753 223.058325  z " style="fill:#4b89b9;opacity:0.4;" />
   </g>
   <g id="patch_85">
    <path clip-path="url(#pdcd6afc03a)" d="M 266.602207 224.64  L 268.94166 224.64  L 268.94166 223.539704  L 266.602207 223.539704  z " style="fill:#4b89b9;opacity:0.4;" />
   </g>
   <g id="patch_86">
    <path clip-path="url(#pdcd6afc03a)" d="M 268.94166 224.64  L 271.281114 224.64  L 271.281114 223.801553  L 268.94166 223.801553  z " style="fill:#4b89b9;opacity:0.4;" />
   </g>
   <g id="patch_87">
    <path clip-path="url(#pdcd6afc03a)" d="M 271.281114 224.64  L 273.620568 224.64  L 273.620568 223.997279  L 271.281114 223.997279  z " style="fill:#4b89b9;opacity:0.4;" />
   </g>
   <g id="patch_88">
    <path clip-path="url(#pdcd6afc03a)" d="M 273.620568 224.64  L 275.960021 224.64  L 275.960021 224.235324  L 273.620568 224.235324  z " style="fill:#4b89b9;opacity:0.4;" />
   </g>
   <g id="patch_89">
    <path clip-path="url(#pdcd6afc03a)" d="M 275.960021 224.64  L 278.299475 224.64  L 278.299475 224.325252  L 275.960021 224.325252  z " style="fill:#4b89b9;opacity:0.4;" />
   </g>
   <g id="patch_90">
    <path clip-path="url(#pdcd6afc03a)" d="M 278.299475 224.64  L 280.638929 224.64  L 280.638929 224.449564  L 278.299475 224.449564  z " style="fill:#4b89b9;opacity:0.4;" />
   </g>
   <g id="patch_91">
    <path clip-path="url(#pdcd6afc03a)" d="M 280.638929 224.64  L 282.978382 224.64  L 282.978382 224.470724  L 280.638929 224.470724  z " style="fill:#4b89b9;opacity:0.4;" />
   </g>
   <g id="patch_92">
    <path clip-path="url(#pdcd6afc03a)" d="M 282.978382 224.64  L 285.317836 224.64  L 285.317836 224.555362  L 282.978382 224.555362  z " style="fill:#4b89b9;opacity:0.4;" />
   </g>
   <g id="patch_93">
    <path clip-path="url(#pdcd6afc03a)" d="M 285.317836 224.64  L 287.65729 224.64  L 287.65729 224.576521  L 285.317836 224.576521  z " style="fill:#4b89b9;opacity:0.4;" />
   </g>
   <g id="patch_94">
    <path clip-path="url(#pdcd6afc03a)" d="M 287.65729 224.64  L 289.996743 224.64  L 289.996743 224.576521  L 287.65729 224.576521  z " style="fill:#4b89b9;opacity:0.4;" />
   </g>
   <g id="patch_95">
    <path clip-path="url(#pdcd6afc03a)" d="M 289.996743 224.64  L 292.336197 224.64  L 292.336197 224.605616  L 289.996743 224.605616  z " style="fill:#4b89b9;opacity:0.4;" />
   </g>
   <g id="patch_96">
    <path clip-path="url(#pdcd6afc03a)" d="M 292.336197 224.64  L 294.675651 224.64  L 294.675651 224.62413  L 292.336197 224.62413  z " style="fill:#4b89b9;opacity:0.4;" />
   </g>
   <g id="patch_97">
    <path clip-path="url(#pdcd6afc03a)" d="M 294.675651 224.64  L 297.015104 224.64  L 297.015104 224.632065  L 294.675651 224.632065  z " style="fill:#4b89b9;opacity:0.4;" />
   </g>
   <g id="patch_98">
    <path clip-path="url(#pdcd6afc03a)" d="M 297.015104 224.64  L 299.354558 224.64  L 299.354558 224.63471  L 297.015104 224.63471  z " style="fill:#4b89b9;opacity:0.4;" />
   </g>
   <g id="patch_99">
    <path clip-path="url(#pdcd6afc03a)" d="M 299.354558 224.64  L 301.694012 224.64  L 301.694012 224.637355  L 299.354558 224.637355  z " style="fill:#4b89b9;opacity:0.4;" />
   </g>
   <g id="patch_100">
    <path clip-path="url(#pdcd6afc03a)" d="M 301.694012 224.64  L 304.033465 224.64  L 304.033465 224.637355  L 301.694012 224.637355  z " style="fill:#4b89b9;opacity:0.4;" />
   </g>
   <g id="patch_101">
    <path clip-path="url(#pdcd6afc03a)" d="M 304.033465 224.64  L 306.372919 224.64  L 306.372919 224.637355  L 304.033465 224.637355  z " style="fill:#4b89b9;opacity:0.4;" />
   </g>
   <g id="patch_102">
    <path clip-path="url(#pdcd6afc03a)" d="M 306.372919 224.64  L 308.712373 224.64  L 308.712373 224.63471  L 306.372919 224.63471  z " style="fill:#4b89b9;opacity:0.4;" />
   </g>
   <g id="patch_103">
    <path clip-path="url(#pdcd6afc03a)" d="M 153.022895 224.64  L 154.930719 224.64  L 154.930719 224.637355  L 153.022895 224.637355  z " style="fill:#ff0000;opacity:0.4;" />
   </g>
   <g id="patch_104">
    <path clip-path="url(#pdcd6afc03a)" d="M 154.930719 224.64  L 156.838542 224.64  L 156.838542 224.637355  L 154.930719 224.637355  z " style="fill:#ff0000;opacity:0.4;" />
   </g>
   <g id="patch_105">
    <path clip-path="url(#pdcd6afc03a)" d="M 156.838542 224.64  L 158.746366 224.64  L 158.746366 224.637355  L 156.838542 224.637355  z " style="fill:#ff0000;opacity:0.4;" />
   </g>
   <g id="patch_106">
    <path clip-path="url(#pdcd6afc03a)" d="M 158.746366 224.64  L 160.654189 224.64  L 160.654189 224.632065  L 158.746366 224.632065  z " style="fill:#ff0000;opacity:0.4;" />
   </g>
   <g id="patch_107">
    <path clip-path="url(#pdcd6afc03a)" d="M 160.654189 224.64  L 162.562012 224.64  L 162.562012 224.63471  L 160.654189 224.63471  z " style="fill:#ff0000;opacity:0.4;" />
   </g>
   <g id="patch_108">
    <path clip-path="url(#pdcd6afc03a)" d="M 162.562012 224.64  L 164.469836 224.64  L 164.469836 224.64  L 162.562012 224.64  z " style="fill:#ff0000;opacity:0.4;" />
   </g>
   <g id="patch_109">
    <path clip-path="url(#pdcd6afc03a)" d="M 164.469836 224.64  L 166.377659 224.64  L 166.377659 224.626775  L 164.469836 224.626775  z " style="fill:#ff0000;opacity:0.4;" />
   </g>
   <g id="patch_110">
    <path clip-path="url(#pdcd6afc03a)" d="M 166.377659 224.64  L 168.285482 224.64  L 168.285482 224.62413  L 166.377659 224.62413  z " style="fill:#ff0000;opacity:0.4;" />
   </g>
   <g id="patch_111">
    <path clip-path="url(#pdcd6afc03a)" d="M 168.285482 224.64  L 170.193306 224.64  L 170.193306 224.610906  L 168.285482 224.610906  z " style="fill:#ff0000;opacity:0.4;" />
   </g>
   <g id="patch_112">
    <path clip-path="url(#pdcd6afc03a)" d="M 170.193306 224.64  L 172.101129 224.64  L 172.101129 224.581811  L 170.193306 224.581811  z " style="fill:#ff0000;opacity:0.4;" />
   </g>
   <g id="patch_113">
    <path clip-path="url(#pdcd6afc03a)" d="M 172.101129 224.64  L 174.008952 224.64  L 174.008952 224.560652  L 172.101129 224.560652  z " style="fill:#ff0000;opacity:0.4;" />
   </g>
   <g id="patch_114">
    <path clip-path="url(#pdcd6afc03a)" d="M 174.008952 224.64  L 175.916776 224.64  L 175.916776 224.515688  L 174.008952 224.515688  z " style="fill:#ff0000;opacity:0.4;" />
   </g>
   <g id="patch_115">
    <path clip-path="url(#pdcd6afc03a)" d="M 175.916776 224.64  L 177.824599 224.64  L 177.824599 224.478659  L 175.916776 224.478659  z " style="fill:#ff0000;opacity:0.4;" />
   </g>
   <g id="patch_116">
    <path clip-path="url(#pdcd6afc03a)" d="M 177.824599 224.64  L 179.732423 224.64  L 179.732423 224.386086  L 177.824599 224.386086  z " style="fill:#ff0000;opacity:0.4;" />
   </g>
   <g id="patch_117">
    <path clip-path="url(#pdcd6afc03a)" d="M 179.732423 224.64  L 181.640246 224.64  L 181.640246 224.264418  L 179.732423 224.264418  z " style="fill:#ff0000;opacity:0.4;" />
   </g>
   <g id="patch_118">
    <path clip-path="url(#pdcd6afc03a)" d="M 181.640246 224.64  L 183.548069 224.64  L 183.548069 224.232679  L 181.640246 224.232679  z " style="fill:#ff0000;opacity:0.4;" />
   </g>
   <g id="patch_119">
    <path clip-path="url(#pdcd6afc03a)" d="M 183.548069 224.64  L 185.455893 224.64  L 185.455893 224.042243  L 183.548069 224.042243  z " style="fill:#ff0000;opacity:0.4;" />
   </g>
   <g id="patch_120">
    <path clip-path="url(#pdcd6afc03a)" d="M 185.455893 224.64  L 187.363716 224.64  L 187.363716 223.764524  L 185.455893 223.764524  z " style="fill:#ff0000;opacity:0.4;" />
   </g>
   <g id="patch_121">
    <path clip-path="url(#pdcd6afc03a)" d="M 187.363716 224.64  L 189.271539 224.64  L 189.271539 223.314884  L 187.363716 223.314884  z " style="fill:#ff0000;opacity:0.4;" />
   </g>
   <g id="patch_122">
    <path clip-path="url(#pdcd6afc03a)" d="M 189.271539 224.64  L 191.179363 224.64  L 191.179363 223.06097  L 189.271539 223.06097  z " style="fill:#ff0000;opacity:0.4;" />
   </g>
   <g id="patch_123">
    <path clip-path="url(#pdcd6afc03a)" d="M 191.179363 224.64  L 193.087186 224.64  L 193.087186 222.309806  L 191.179363 222.309806  z " style="fill:#ff0000;opacity:0.4;" />
   </g>
   <g id="patch_124">
    <path clip-path="url(#pdcd6afc03a)" d="M 193.087186 224.64  L 194.995009 224.64  L 194.995009 221.484584  L 193.087186 221.484584  z " style="fill:#ff0000;opacity:0.4;" />
   </g>
   <g id="patch_125">
    <path clip-path="url(#pdcd6afc03a)" d="M 194.995009 224.64  L 196.902833 224.64  L 196.902833 220.376354  L 194.995009 220.376354  z " style="fill:#ff0000;opacity:0.4;" />
   </g>
   <g id="patch_126">
    <path clip-path="url(#pdcd6afc03a)" d="M 196.902833 224.64  L 198.810656 224.64  L 198.810656 219.413595  L 196.902833 219.413595  z " style="fill:#ff0000;opacity:0.4;" />
   </g>
   <g id="patch_127">
    <path clip-path="url(#pdcd6afc03a)" d="M 198.810656 224.64  L 200.71848 224.64  L 200.71848 217.498657  L 198.810656 217.498657  z " style="fill:#ff0000;opacity:0.4;" />
   </g>
   <g id="patch_128">
    <path clip-path="url(#pdcd6afc03a)" d="M 200.71848 224.64  L 202.626303 224.64  L 202.626303 215.55727  L 200.71848 215.55727  z " style="fill:#ff0000;opacity:0.4;" />
   </g>
   <g id="patch_129">
    <path clip-path="url(#pdcd6afc03a)" d="M 202.626303 224.64  L 204.534126 224.64  L 204.534126 213.245591  L 202.626303 213.245591  z " style="fill:#ff0000;opacity:0.4;" />
   </g>
   <g id="patch_130">
    <path clip-path="url(#pdcd6afc03a)" d="M 204.534126 224.64  L 206.44195 224.64  L 206.44195 210.050501  L 204.534126 210.050501  z " style="fill:#ff0000;opacity:0.4;" />
   </g>
   <g id="patch_131">
    <path clip-path="url(#pdcd6afc03a)" d="M 206.44195 224.64  L 208.349773 224.64  L 208.349773 206.630592  L 206.44195 206.630592  z " style="fill:#ff0000;opacity:0.4;" />
   </g>
   <g id="patch_132">
    <path clip-path="url(#pdcd6afc03a)" d="M 208.349773 224.64  L 210.257596 224.64  L 210.257596 202.792781  L 208.349773 202.792781  z " style="fill:#ff0000;opacity:0.4;" />
   </g>
   <g id="patch_133">
    <path clip-path="url(#pdcd6afc03a)" d="M 210.257596 224.64  L 212.16542 224.64  L 212.16542 197.354781  L 210.257596 197.354781  z " style="fill:#ff0000;opacity:0.4;" />
   </g>
   <g id="patch_134">
    <path clip-path="url(#pdcd6afc03a)" d="M 212.16542 224.64  L 214.073243 224.64  L 214.073243 191.945875  L 212.16542 191.945875  z " style="fill:#ff0000;opacity:0.4;" />
   </g>
   <g id="patch_135">
    <path clip-path="url(#pdcd6afc03a)" d="M 214.073243 224.64  L 215.981066 224.64  L 215.981066 185.709102  L 214.073243 185.709102  z " style="fill:#ff0000;opacity:0.4;" />
   </g>
   <g id="patch_136">
    <path clip-path="url(#pdcd6afc03a)" d="M 215.981066 224.64  L 217.88889 224.64  L 217.88889 178.395838  L 215.981066 178.395838  z " style="fill:#ff0000;opacity:0.4;" />
   </g>
   <g id="patch_137">
    <path clip-path="url(#pdcd6afc03a)" d="M 217.88889 224.64  L 219.796713 224.64  L 219.796713 170.037823  L 217.88889 170.037823  z " style="fill:#ff0000;opacity:0.4;" />
   </g>
   <g id="patch_138">
    <path clip-path="url(#pdcd6afc03a)" d="M 219.796713 224.64  L 221.704537 224.64  L 221.704537 160.730273  L 219.796713 160.730273  z " style="fill:#ff0000;opacity:0.4;" />
   </g>
   <g id="patch_139">
    <path clip-path="url(#pdcd6afc03a)" d="M 221.704537 224.64  L 223.61236 224.64  L 223.61236 150.943988  L 221.704537 150.943988  z " style="fill:#ff0000;opacity:0.4;" />
   </g>
   <g id="patch_140">
    <path clip-path="url(#pdcd6afc03a)" d="M 223.61236 224.64  L 225.520183 224.64  L 225.520183 139.954255  L 223.61236 139.954255  z " style="fill:#ff0000;opacity:0.4;" />
   </g>
   <g id="patch_141">
    <path clip-path="url(#pdcd6afc03a)" d="M 225.520183 224.64  L 227.428007 224.64  L 227.428007 128.316511  L 225.520183 128.316511  z " style="fill:#ff0000;opacity:0.4;" />
   </g>
   <g id="patch_142">
    <path clip-path="url(#pdcd6afc03a)" d="M 227.428007 224.64  L 229.33583 224.64  L 229.33583 117.533084  L 227.428007 117.533084  z " style="fill:#ff0000;opacity:0.4;" />
   </g>
   <g id="patch_143">
    <path clip-path="url(#pdcd6afc03a)" d="M 229.33583 224.64  L 231.243653 224.64  L 231.243653 104.874393  L 229.33583 104.874393  z " style="fill:#ff0000;opacity:0.4;" />
   </g>
   <g id="patch_144">
    <path clip-path="url(#pdcd6afc03a)" d="M 231.243653 224.64  L 233.151477 224.64  L 233.151477 92.06494  L 231.243653 92.06494  z " style="fill:#ff0000;opacity:0.4;" />
   </g>
   <g id="patch_145">
    <path clip-path="url(#pdcd6afc03a)" d="M 233.151477 224.64  L 235.0593 224.64  L 235.0593 80.374297  L 233.151477 80.374297  z " style="fill:#ff0000;opacity:0.4;" />
   </g>
   <g id="patch_146">
    <path clip-path="url(#pdcd6afc03a)" d="M 235.0593 224.64  L 236.967123 224.64  L 236.967123 69.11478  L 235.0593 69.11478  z " style="fill:#ff0000;opacity:0.4;" />
   </g>
   <g id="patch_147">
    <path clip-path="url(#pdcd6afc03a)" d="M 236.967123 224.64  L 238.874947 224.64  L 238.874947 57.154354  L 236.967123 57.154354  z " style="fill:#ff0000;opacity:0.4;" />
   </g>
   <g id="patch_148">
    <path clip-path="url(#pdcd6afc03a)" d="M 238.874947 224.64  L 240.78277 224.64  L 240.78277 48.838657  L 238.874947 48.838657  z " style="fill:#ff0000;opacity:0.4;" />
   </g>
   <g id="patch_149">
    <path clip-path="url(#pdcd6afc03a)" d="M 240.78277 224.64  L 242.690594 224.64  L 242.690594 38.094903  L 240.78277 38.094903  z " style="fill:#ff0000;opacity:0.4;" />
   </g>
   <g id="patch_150">
    <path clip-path="url(#pdcd6afc03a)" d="M 242.690594 224.64  L 244.598417 224.64  L 244.598417 31.056713  L 242.690594 31.056713  z " style="fill:#ff0000;opacity:0.4;" />
   </g>
   <g id="patch_151">
    <path clip-path="url(#pdcd6afc03a)" d="M 244.598417 224.64  L 246.50624 224.64  L 246.50624 25.372734  L 244.598417 25.372734  z " style="fill:#ff0000;opacity:0.4;" />
   </g>
   <g id="patch_152">
    <path clip-path="url(#pdcd6afc03a)" d="M 246.50624 224.64  L 248.414064 224.64  L 248.414064 21.992498  L 246.50624 21.992498  z " style="fill:#ff0000;opacity:0.4;" />
   </g>
   <g id="patch_153">
    <path clip-path="url(#pdcd6afc03a)" d="M 248.414064 224.64  L 250.321887 224.64  L 250.321887 18.636067  L 248.414064 18.636067  z " style="fill:#ff0000;opacity:0.4;" />
   </g>
   <g id="patch_154">
    <path clip-path="url(#pdcd6afc03a)" d="M 250.321887 224.64  L 252.22971 224.64  L 252.22971 17.554286  L 250.321887 17.554286  z " style="fill:#ff0000;opacity:0.4;" />
   </g>
   <g id="patch_155">
    <path clip-path="url(#pdcd6afc03a)" d="M 252.22971 224.64  L 254.137534 224.64  L 254.137534 20.389663  L 252.22971 20.389663  z " style="fill:#ff0000;opacity:0.4;" />
   </g>
   <g id="patch_156">
    <path clip-path="url(#pdcd6afc03a)" d="M 254.137534 224.64  L 256.045357 224.64  L 256.045357 24.703563  L 254.137534 24.703563  z " style="fill:#ff0000;opacity:0.4;" />
   </g>
   <g id="patch_157">
    <path clip-path="url(#pdcd6afc03a)" d="M 256.045357 224.64  L 257.95318 224.64  L 257.95318 29.612575  L 256.045357 29.612575  z " style="fill:#ff0000;opacity:0.4;" />
   </g>
   <g id="patch_158">
    <path clip-path="url(#pdcd6afc03a)" d="M 257.95318 224.64  L 259.861004 224.64  L 259.861004 35.680072  L 257.95318 35.680072  z " style="fill:#ff0000;opacity:0.4;" />
   </g>
   <g id="patch_159">
    <path clip-path="url(#pdcd6afc03a)" d="M 259.861004 224.64  L 261.768827 224.64  L 261.768827 44.686098  L 259.861004 44.686098  z " style="fill:#ff0000;opacity:0.4;" />
   </g>
   <g id="patch_160">
    <path clip-path="url(#pdcd6afc03a)" d="M 261.768827 224.64  L 263.676651 224.64  L 263.676651 54.326911  L 261.768827 54.326911  z " style="fill:#ff0000;opacity:0.4;" />
   </g>
   <g id="patch_161">
    <path clip-path="url(#pdcd6afc03a)" d="M 263.676651 224.64  L 265.584474 224.64  L 265.584474 65.850922  L 263.676651 65.850922  z " style="fill:#ff0000;opacity:0.4;" />
   </g>
   <g id="patch_162">
    <path clip-path="url(#pdcd6afc03a)" d="M 265.584474 224.64  L 267.492297 224.64  L 267.492297 77.530985  L 265.584474 77.530985  z " style="fill:#ff0000;opacity:0.4;" />
   </g>
   <g id="patch_163">
    <path clip-path="url(#pdcd6afc03a)" d="M 267.492297 224.64  L 269.400121 224.64  L 269.400121 88.610646  L 267.492297 88.610646  z " style="fill:#ff0000;opacity:0.4;" />
   </g>
   <g id="patch_164">
    <path clip-path="url(#pdcd6afc03a)" d="M 269.400121 224.64  L 271.307944 224.64  L 271.307944 100.679515  L 269.400121 100.679515  z " style="fill:#ff0000;opacity:0.4;" />
   </g>
   <g id="patch_165">
    <path clip-path="url(#pdcd6afc03a)" d="M 271.307944 224.64  L 273.215767 224.64  L 273.215767 113.060487  L 271.307944 113.060487  z " style="fill:#ff0000;opacity:0.4;" />
   </g>
   <g id="patch_166">
    <path clip-path="url(#pdcd6afc03a)" d="M 273.215767 224.64  L 275.123591 224.64  L 275.123591 125.007689  L 273.215767 125.007689  z " style="fill:#ff0000;opacity:0.4;" />
   </g>
   <g id="patch_167">
    <path clip-path="url(#pdcd6afc03a)" d="M 275.123591 224.64  L 277.031414 224.64  L 277.031414 136.224887  L 275.123591 136.224887  z " style="fill:#ff0000;opacity:0.4;" />
   </g>
   <g id="patch_168">
    <path clip-path="url(#pdcd6afc03a)" d="M 277.031414 224.64  L 278.939237 224.64  L 278.939237 147.709224  L 277.031414 147.709224  z " style="fill:#ff0000;opacity:0.4;" />
   </g>
   <g id="patch_169">
    <path clip-path="url(#pdcd6afc03a)" d="M 278.939237 224.64  L 280.847061 224.64  L 280.847061 157.305073  L 278.939237 157.305073  z " style="fill:#ff0000;opacity:0.4;" />
   </g>
   <g id="patch_170">
    <path clip-path="url(#pdcd6afc03a)" d="M 280.847061 224.64  L 282.754884 224.64  L 282.754884 167.207735  L 280.847061 167.207735  z " style="fill:#ff0000;opacity:0.4;" />
   </g>
   <g id="patch_171">
    <path clip-path="url(#pdcd6afc03a)" d="M 282.754884 224.64  L 284.662708 224.64  L 284.662708 175.504917  L 282.754884 175.504917  z " style="fill:#ff0000;opacity:0.4;" />
   </g>
   <g id="patch_172">
    <path clip-path="url(#pdcd6afc03a)" d="M 284.662708 224.64  L 286.570531 224.64  L 286.570531 182.963653  L 284.662708 182.963653  z " style="fill:#ff0000;opacity:0.4;" />
   </g>
   <g id="patch_173">
    <path clip-path="url(#pdcd6afc03a)" d="M 286.570531 224.64  L 288.478354 224.64  L 288.478354 190.218728  L 286.570531 190.218728  z " style="fill:#ff0000;opacity:0.4;" />
   </g>
   <g id="patch_174">
    <path clip-path="url(#pdcd6afc03a)" d="M 288.478354 224.64  L 290.386178 224.64  L 290.386178 195.820715  L 288.478354 195.820715  z " style="fill:#ff0000;opacity:0.4;" />
   </g>
   <g id="patch_175">
    <path clip-path="url(#pdcd6afc03a)" d="M 290.386178 224.64  L 292.294001 224.64  L 292.294001 201.039185  L 290.386178 201.039185  z " style="fill:#ff0000;opacity:0.4;" />
   </g>
   <g id="patch_176">
    <path clip-path="url(#pdcd6afc03a)" d="M 292.294001 224.64  L 294.201824 224.64  L 294.201824 205.231417  L 292.294001 205.231417  z " style="fill:#ff0000;opacity:0.4;" />
   </g>
   <g id="patch_177">
    <path clip-path="url(#pdcd6afc03a)" d="M 294.201824 224.64  L 296.109648 224.64  L 296.109648 209.465969  L 294.201824 209.465969  z " style="fill:#ff0000;opacity:0.4;" />
   </g>
   <g id="patch_178">
    <path clip-path="url(#pdcd6afc03a)" d="M 296.109648 224.64  L 298.017471 224.64  L 298.017471 212.317216  L 296.109648 212.317216  z " style="fill:#ff0000;opacity:0.4;" />
   </g>
   <g id="patch_179">
    <path clip-path="url(#pdcd6afc03a)" d="M 298.017471 224.64  L 299.925295 224.64  L 299.925295 214.970093  L 298.017471 214.970093  z " style="fill:#ff0000;opacity:0.4;" />
   </g>
   <g id="patch_180">
    <path clip-path="url(#pdcd6afc03a)" d="M 299.925295 224.64  L 301.833118 224.64  L 301.833118 217.16804  L 299.925295 217.16804  z " style="fill:#ff0000;opacity:0.4;" />
   </g>
   <g id="patch_181">
    <path clip-path="url(#pdcd6afc03a)" d="M 301.833118 224.64  L 303.740941 224.64  L 303.740941 218.7312  L 301.833118 218.7312  z " style="fill:#ff0000;opacity:0.4;" />
   </g>
   <g id="patch_182">
    <path clip-path="url(#pdcd6afc03a)" d="M 303.740941 224.64  L 305.648765 224.64  L 305.648765 220.225592  L 303.740941 220.225592  z " style="fill:#ff0000;opacity:0.4;" />
   </g>
   <g id="patch_183">
    <path clip-path="url(#pdcd6afc03a)" d="M 305.648765 224.64  L 307.556588 224.64  L 307.556588 221.153967  L 305.648765 221.153967  z " style="fill:#ff0000;opacity:0.4;" />
   </g>
   <g id="patch_184">
    <path clip-path="url(#pdcd6afc03a)" d="M 307.556588 224.64  L 309.464411 224.64  L 309.464411 221.92629  L 307.556588 221.92629  z " style="fill:#ff0000;opacity:0.4;" />
   </g>
   <g id="patch_185">
    <path clip-path="url(#pdcd6afc03a)" d="M 309.464411 224.64  L 311.372235 224.64  L 311.372235 222.703903  L 309.464411 222.703903  z " style="fill:#ff0000;opacity:0.4;" />
   </g>
   <g id="patch_186">
    <path clip-path="url(#pdcd6afc03a)" d="M 311.372235 224.64  L 313.280058 224.64  L 313.280058 223.277855  L 311.372235 223.277855  z " style="fill:#ff0000;opacity:0.4;" />
   </g>
   <g id="patch_187">
    <path clip-path="url(#pdcd6afc03a)" d="M 313.280058 224.64  L 315.187881 224.64  L 315.187881 223.542349  L 313.280058 223.542349  z " style="fill:#ff0000;opacity:0.4;" />
   </g>
   <g id="patch_188">
    <path clip-path="url(#pdcd6afc03a)" d="M 315.187881 224.64  L 317.095705 224.64  L 317.095705 223.883547  L 315.187881 223.883547  z " style="fill:#ff0000;opacity:0.4;" />
   </g>
   <g id="patch_189">
    <path clip-path="url(#pdcd6afc03a)" d="M 317.095705 224.64  L 319.003528 224.64  L 319.003528 224.063403  L 317.095705 224.063403  z " style="fill:#ff0000;opacity:0.4;" />
   </g>
   <g id="patch_190">
    <path clip-path="url(#pdcd6afc03a)" d="M 319.003528 224.64  L 320.911352 224.64  L 320.911352 224.224744  L 319.003528 224.224744  z " style="fill:#ff0000;opacity:0.4;" />
   </g>
   <g id="patch_191">
    <path clip-path="url(#pdcd6afc03a)" d="M 320.911352 224.64  L 322.819175 224.64  L 322.819175 224.372861  L 320.911352 224.372861  z " style="fill:#ff0000;opacity:0.4;" />
   </g>
   <g id="patch_192">
    <path clip-path="url(#pdcd6afc03a)" d="M 322.819175 224.64  L 324.726998 224.64  L 324.726998 224.428405  L 322.819175 224.428405  z " style="fill:#ff0000;opacity:0.4;" />
   </g>
   <g id="patch_193">
    <path clip-path="url(#pdcd6afc03a)" d="M 324.726998 224.64  L 326.634822 224.64  L 326.634822 224.499818  L 324.726998 224.499818  z " style="fill:#ff0000;opacity:0.4;" />
   </g>
   <g id="patch_194">
    <path clip-path="url(#pdcd6afc03a)" d="M 326.634822 224.64  L 328.542645 224.64  L 328.542645 224.563297  L 326.634822 224.563297  z " style="fill:#ff0000;opacity:0.4;" />
   </g>
   <g id="patch_195">
    <path clip-path="url(#pdcd6afc03a)" d="M 328.542645 224.64  L 330.450468 224.64  L 330.450468 224.584456  L 328.542645 224.584456  z " style="fill:#ff0000;opacity:0.4;" />
   </g>
   <g id="patch_196">
    <path clip-path="url(#pdcd6afc03a)" d="M 330.450468 224.64  L 332.358292 224.64  L 332.358292 224.600326  L 330.450468 224.600326  z " style="fill:#ff0000;opacity:0.4;" />
   </g>
   <g id="patch_197">
    <path clip-path="url(#pdcd6afc03a)" d="M 332.358292 224.64  L 334.266115 224.64  L 334.266115 224.610906  L 332.358292 224.610906  z " style="fill:#ff0000;opacity:0.4;" />
   </g>
   <g id="patch_198">
    <path clip-path="url(#pdcd6afc03a)" d="M 334.266115 224.64  L 336.173938 224.64  L 336.173938 224.610906  L 334.266115 224.610906  z " style="fill:#ff0000;opacity:0.4;" />
   </g>
   <g id="patch_199">
    <path clip-path="url(#pdcd6afc03a)" d="M 336.173938 224.64  L 338.081762 224.64  L 338.081762 224.62942  L 336.173938 224.62942  z " style="fill:#ff0000;opacity:0.4;" />
   </g>
   <g id="patch_200">
    <path clip-path="url(#pdcd6afc03a)" d="M 338.081762 224.64  L 339.989585 224.64  L 339.989585 224.632065  L 338.081762 224.632065  z " style="fill:#ff0000;opacity:0.4;" />
   </g>
   <g id="patch_201">
    <path clip-path="url(#pdcd6afc03a)" d="M 339.989585 224.64  L 341.897409 224.64  L 341.897409 224.63471  L 339.989585 224.63471  z " style="fill:#ff0000;opacity:0.4;" />
   </g>
   <g id="patch_202">
    <path clip-path="url(#pdcd6afc03a)" d="M 341.897409 224.64  L 343.805232 224.64  L 343.805232 224.637355  L 341.897409 224.637355  z " style="fill:#ff0000;opacity:0.4;" />
   </g>
   <g id="line2d_7">
    <path clip-path="url(#pdcd6afc03a)" d="M 278.54 224.64  L 278.54 7.2  " style="fill:none;stroke:#ff0000;stroke-linecap:square;stroke-width:1.5;" />
   </g>
   <g id="patch_203">
    <path d="M 10.7 224.64  L 10.7 7.2  " style="fill:none;stroke:#ffffff;stroke-linecap:square;stroke-linejoin:miter;" />
   </g>
   <g id="patch_204">
    <path d="M 345.5 224.64  L 345.5 7.2  " style="fill:none;stroke:#ffffff;stroke-linecap:square;stroke-linejoin:miter;" />
   </g>
   <g id="patch_205">
    <path d="M 10.7 224.64  L 345.5 224.64  " style="fill:none;stroke:#ffffff;stroke-linecap:square;stroke-linejoin:miter;" />
   </g>
   <g id="patch_206">
    <path d="M 10.7 7.2  L 345.5 7.2  " style="fill:none;stroke:#ffffff;stroke-linecap:square;stroke-linejoin:miter;" />
   </g>
  </g>
 </g>
 <defs>
  <clipPath id="pdcd6afc03a">
   <rect height="217.44" width="334.8" x="10.7" y="7.2" />
  </clipPath>
 </defs>
</svg>