<svg xmlns="http://www.w3.org/2000/svg" xmlns:ns1="http://www.w3.org/1999/xlink" height="248.518125pt" version="1.1" viewBox="0 0 352.7 248.518125" width="352.7pt">
 <defs>
  <style type="text/css">
*{stroke-linecap:butt;stroke-linejoin:round;white-space:pre;}
  </style>
 </defs>
 <g id="figure_1">
  <g id="patch_1">
   <path d="M 0 248.518125  L 352.7 248.518125  L 352.7 0  L 0 0  z " style="fill:none;" />
  </g>
  <g id="axes_1">
   <g id="patch_2">
    <path d="M 10.7 224.64  L 345.5 224.64  L 345.5 7.2  L 10.7 7.2  z " style="fill:none;" />
   </g>
   <g id="matplotlib.axis_1">
    <g id="xtick_1">
     <g id="line2d_1">
      <defs>
       <path d="M 0 0  L 0 3.5  " id="mefad3eb970" style="stroke:#555555;stroke-width:0.8;" />
      </defs>
      <g>
       <use style="fill:#555555;stroke:#555555;stroke-width:0.8;" x="52.43091" y="224.64" ns1:href="#mefad3eb970" />
      </g>
     </g>
     <g id="text_1">
      <text style="text-anchor:middle;font-family:-apple-system,BlinkMacSystemFont,&quot;Segoe UI&quot;,Roboto,&quot;Helvetica Neue&quot;,Arial,&quot;Noto Sans&quot;,sans-serif,&quot;Apple Color Emoji&quot;,&quot;Segoe UI Emoji&quot;,&quot;Segoe UI Symbol&quot;,&quot;Noto Color Emoji&quot;;font-size:0.7em;color:#6c757d" transform="rotate(-0, 52.43091, 239.238437)" x="52.43091" y="239.238437">&#8722;0.06</text>
     </g>
    </g>
    <g id="xtick_2">
     <g id="line2d_2">
      <g>
       <use style="fill:#555555;stroke:#555555;stroke-width:0.8;" x="103.835737" y="224.64" ns1:href="#mefad3eb970" />
      </g>
     </g>
     <g id="text_2">
      <text style="text-anchor:middle;font-family:-apple-system,BlinkMacSystemFont,&quot;Segoe UI&quot;,Roboto,&quot;Helvetica Neue&quot;,Arial,&quot;Noto Sans&quot;,sans-serif,&quot;Apple Color Emoji&quot;,&quot;Segoe UI Emoji&quot;,&quot;Segoe UI Symbol&quot;,&quot;Noto Color Emoji&quot;;font-size:0.7em;color:#6c757d" transform="rotate(-0, 103.835737, 239.238437)" x="103.835737" y="239.238437">&#8722;0.04</text>
     </g>
    </g>
    <g id="xtick_3">
     <g id="line2d_3">
      <g>
       <use style="fill:#555555;stroke:#555555;stroke-width:0.8;" x="155.240565" y="224.64" ns1:href="#mefad3eb970" />
      </g>
     </g>
     <g id="text_3">
      <text style="text-anchor:middle;font-family:-apple-system,BlinkMacSystemFont,&quot;Segoe UI&quot;,Roboto,&quot;Helvetica Neue&quot;,Arial,&quot;Noto Sans&quot;,sans-serif,&quot;Apple Color Emoji&quot;,&quot;Segoe UI Emoji&quot;,&quot;Segoe UI Symbol&quot;,&quot;Noto Color Emoji&quot;;font-size:0.7em;color:#6c757d" transform="rotate(-0, 155.240565, 239.238437)" x="155.240565" y="239.238437">&#8722;0.02</text>
     </g>
    </g>
    <g id="xtick_4">
     <g id="line2d_4">
      <g>
       <use style="fill:#555555;stroke:#555555;stroke-width:0.8;" x="206.645392" y="224.64" ns1:href="#mefad3eb970" />
      </g>
     </g>
     <g id="text_4">
      <text style="text-anchor:middle;font-family:-apple-system,BlinkMacSystemFont,&quot;Segoe UI&quot;,Roboto,&quot;Helvetica Neue&quot;,Arial,&quot;Noto Sans&quot;,sans-serif,&quot;Apple Color Emoji&quot;,&quot;Segoe UI Emoji&quot;,&quot;Segoe UI Symbol&quot;,&quot;Noto Color Emoji&quot;;font-size:0.7em;color:#6c757d" transform="rotate(-0, 206.645392, 239.238437)" x="206.645392" y="239.238437">0.00</text>
     </g>
    </g>
    <g id="xtick_5">
     <g id="line2d_5">
      <g>
       <use style="fill:#555555;stroke:#555555;stroke-width:0.8;" x="258.050219" y="224.64" ns1:href="#mefad3eb970" />
      </g>
     </g>
     <g id="text_5">
      <text style="text-anchor:middle;font-family:-apple-system,BlinkMacSystemFont,&quot;Segoe UI&quot;,Roboto,&quot;Helvetica Neue&quot;,Arial,&quot;Noto Sans&quot;,sans-serif,&quot;Apple Color Emoji&quot;,&quot;Segoe UI Emoji&quot;,&quot;Segoe UI Symbol&quot;,&quot;Noto Color Emoji&quot;;font-size:0.7em;color:#6c757d" transform="rotate(-0, 258.050219, 239.238437)" x="258.050219" y="239.238437">0.02</text>
     </g>
    </g>
    <g id="xtick_6">
     <g id="line2d_6">
      <g>
       <use style="fill:#555555;stroke:#555555;stroke-width:0.8;" x="309.455047" y="224.64" ns1:href="#mefad3eb970" />
      </g>
     </g>
     <g id="text_6">
      <text style="text-anchor:middle;font-family:-apple-system,BlinkMacSystemFont,&quot;Segoe UI&quot;,Roboto,&quot;Helvetica Neue&quot;,Arial,&quot;Noto Sans&quot;,sans-serif,&quot;Apple Color Emoji&quot;,&quot;Segoe UI Emoji&quot;,&quot;Segoe UI Symbol&quot;,&quot;Noto Color Emoji&quot;;font-size:0.7em;color:#6c757d" transform="rotate(-0, 309.455047, 239.238437)" x="309.455047" y="239.238437">0.04</text>
     </g>
    </g>
   </g>
   <g id="patch_3">
    <path clip-path="url(#pf207f11d4f)" d="M 25.918182 224.64  L 30.409164 224.64  L 30.409164 224.095038  L 25.918182 224.095038  z " style="fill:#4b89b9;opacity:0.4;" />
   </g>
   <g id="patch_4">
    <path clip-path="url(#pf207f11d4f)" d="M 30.409164 224.64  L 34.900147 224.64  L 34.900147 224.64  L 30.409164 224.64  z " style="fill:#4b89b9;opacity:0.4;" />
   </g>
   <g id="patch_5">
    <path clip-path="url(#pf207f11d4f)" d="M 34.900147 224.64  L 39.39113 224.64  L 39.39113 224.095038  L 34.900147 224.095038  z " style="fill:#4b89b9;opacity:0.4;" />
   </g>
   <g id="patch_6">
    <path clip-path="url(#pf207f11d4f)" d="M 39.39113 224.64  L 43.882112 224.64  L 43.882112 223.277594  L 39.39113 223.277594  z " style="fill:#4b89b9;opacity:0.4;" />
   </g>
   <g id="patch_7">
    <path clip-path="url(#pf207f11d4f)" d="M 43.882112 224.64  L 48.373095 224.64  L 48.373095 219.735338  L 43.882112 219.735338  z " style="fill:#4b89b9;opacity:0.4;" />
   </g>
   <g id="patch_8">
    <path clip-path="url(#pf207f11d4f)" d="M 48.373095 224.64  L 52.864078 224.64  L 52.864078 217.82797  L 48.373095 217.82797  z " style="fill:#4b89b9;opacity:0.4;" />
   </g>
   <g id="patch_9">
    <path clip-path="url(#pf207f11d4f)" d="M 52.864078 224.64  L 57.35506 224.64  L 57.35506 218.100451  L 52.864078 218.100451  z " style="fill:#4b89b9;opacity:0.4;" />
   </g>
   <g id="patch_10">
    <path clip-path="url(#pf207f11d4f)" d="M 57.35506 224.64  L 61.846043 224.64  L 61.846043 216.193083  L 57.35506 216.193083  z " style="fill:#4b89b9;opacity:0.4;" />
   </g>
   <g id="patch_11">
    <path clip-path="url(#pf207f11d4f)" d="M 61.846043 224.64  L 66.337026 224.64  L 66.337026 214.558195  L 61.846043 214.558195  z " style="fill:#4b89b9;opacity:0.4;" />
   </g>
   <g id="patch_12">
    <path clip-path="url(#pf207f11d4f)" d="M 66.337026 224.64  L 70.828008 224.64  L 70.828008 204.476391  L 66.337026 204.476391  z " style="fill:#4b89b9;opacity:0.4;" />
   </g>
   <g id="patch_13">
    <path clip-path="url(#pf207f11d4f)" d="M 70.828008 224.64  L 75.318991 224.64  L 75.318991 206.656241  L 70.828008 206.656241  z " style="fill:#4b89b9;opacity:0.4;" />
   </g>
   <g id="patch_14">
    <path clip-path="url(#pf207f11d4f)" d="M 75.318991 224.64  L 79.809974 224.64  L 79.809974 194.394586  L 75.318991 194.394586  z " style="fill:#4b89b9;opacity:0.4;" />
   </g>
   <g id="patch_15">
    <path clip-path="url(#pf207f11d4f)" d="M 79.809974 224.64  L 84.300956 224.64  L 84.300956 173.141053  L 79.809974 173.141053  z " style="fill:#4b89b9;opacity:0.4;" />
   </g>
   <g id="patch_16">
    <path clip-path="url(#pf207f11d4f)" d="M 84.300956 224.64  L 88.791939 224.64  L 88.791939 184.040301  L 84.300956 184.040301  z " style="fill:#4b89b9;opacity:0.4;" />
   </g>
   <g id="patch_17">
    <path clip-path="url(#pf207f11d4f)" d="M 88.791939 224.64  L 93.282921 224.64  L 93.282921 155.429774  L 88.791939 155.429774  z " style="fill:#4b89b9;opacity:0.4;" />
   </g>
   <g id="patch_18">
    <path clip-path="url(#pf207f11d4f)" d="M 93.282921 224.64  L 97.773904 224.64  L 97.773904 172.323609  L 93.282921 172.323609  z " style="fill:#4b89b9;opacity:0.4;" />
   </g>
   <g id="patch_19">
    <path clip-path="url(#pf207f11d4f)" d="M 97.773904 224.64  L 102.264887 224.64  L 102.264887 126.546767  L 97.773904 126.546767  z " style="fill:#4b89b9;opacity:0.4;" />
   </g>
   <g id="patch_20">
    <path clip-path="url(#pf207f11d4f)" d="M 102.264887 224.64  L 106.755869 224.64  L 106.755869 109.925414  L 102.264887 109.925414  z " style="fill:#4b89b9;opacity:0.4;" />
   </g>
   <g id="patch_21">
    <path clip-path="url(#pf207f11d4f)" d="M 106.755869 224.64  L 111.246852 224.64  L 111.246852 78.862556  L 106.755869 78.862556  z " style="fill:#4b89b9;opacity:0.4;" />
   </g>
   <g id="patch_22">
    <path clip-path="url(#pf207f11d4f)" d="M 111.246852 224.64  L 115.737835 224.64  L 115.737835 55.429173  L 111.246852 55.429173  z " style="fill:#4b89b9;opacity:0.4;" />
   </g>
   <g id="patch_23">
    <path clip-path="url(#pf207f11d4f)" d="M 115.737835 224.64  L 120.228817 224.64  L 120.228817 80.769925  L 115.737835 80.769925  z " style="fill:#4b89b9;opacity:0.4;" />
   </g>
   <g id="patch_24">
    <path clip-path="url(#pf207f11d4f)" d="M 120.228817 224.64  L 124.7198 224.64  L 124.7198 58.153985  L 120.228817 58.153985  z " style="fill:#4b89b9;opacity:0.4;" />
   </g>
   <g id="patch_25">
    <path clip-path="url(#pf207f11d4f)" d="M 124.7198 224.64  L 129.210783 224.64  L 129.210783 41.805113  L 124.7198 41.805113  z " style="fill:#4b89b9;opacity:0.4;" />
   </g>
   <g id="patch_26">
    <path clip-path="url(#pf207f11d4f)" d="M 129.210783 224.64  L 133.701765 224.64  L 133.701765 78.045113  L 129.210783 78.045113  z " style="fill:#4b89b9;opacity:0.4;" />
   </g>
   <g id="patch_27">
    <path clip-path="url(#pf207f11d4f)" d="M 133.701765 224.64  L 138.192748 224.64  L 138.192748 58.153985  L 133.701765 58.153985  z " style="fill:#4b89b9;opacity:0.4;" />
   </g>
   <g id="patch_28">
    <path clip-path="url(#pf207f11d4f)" d="M 138.192748 224.64  L 142.683731 224.64  L 142.683731 49.162105  L 138.192748 49.162105  z " style="fill:#4b89b9;opacity:0.4;" />
   </g>
   <g id="patch_29">
    <path clip-path="url(#pf207f11d4f)" d="M 142.683731 224.64  L 147.174713 224.64  L 147.174713 84.31218  L 142.683731 84.31218  z " style="fill:#4b89b9;opacity:0.4;" />
   </g>
   <g id="patch_30">
    <path clip-path="url(#pf207f11d4f)" d="M 147.174713 224.64  L 151.665696 224.64  L 151.665696 83.494737  L 147.174713 83.494737  z " style="fill:#4b89b9;opacity:0.4;" />
   </g>
   <g id="patch_31">
    <path clip-path="url(#pf207f11d4f)" d="M 151.665696 224.64  L 156.156678 224.64  L 156.156678 107.745564  L 151.665696 107.745564  z " style="fill:#4b89b9;opacity:0.4;" />
   </g>
   <g id="patch_32">
    <path clip-path="url(#pf207f11d4f)" d="M 156.156678 224.64  L 160.647661 224.64  L 160.647661 107.745564  L 156.156678 107.745564  z " style="fill:#4b89b9;opacity:0.4;" />
   </g>
   <g id="patch_33">
    <path clip-path="url(#pf207f11d4f)" d="M 160.647661 224.64  L 165.138644 224.64  L 165.138644 143.440602  L 160.647661 143.440602  z " style="fill:#4b89b9;opacity:0.4;" />
   </g>
   <g id="patch_34">
    <path clip-path="url(#pf207f11d4f)" d="M 165.138644 224.64  L 169.629626 224.64  L 169.629626 161.424361  L 165.138644 161.424361  z " style="fill:#4b89b9;opacity:0.4;" />
   </g>
   <g id="patch_35">
    <path clip-path="url(#pf207f11d4f)" d="M 169.629626 224.64  L 174.120609 224.64  L 174.120609 148.345263  L 169.629626 148.345263  z " style="fill:#4b89b9;opacity:0.4;" />
   </g>
   <g id="patch_36">
    <path clip-path="url(#pf207f11d4f)" d="M 174.120609 224.64  L 178.611592 224.64  L 178.611592 161.15188  L 174.120609 161.15188  z " style="fill:#4b89b9;opacity:0.4;" />
   </g>
   <g id="patch_37">
    <path clip-path="url(#pf207f11d4f)" d="M 178.611592 224.64  L 183.102574 224.64  L 183.102574 172.59609  L 178.611592 172.59609  z " style="fill:#4b89b9;opacity:0.4;" />
   </g>
   <g id="patch_38">
    <path clip-path="url(#pf207f11d4f)" d="M 183.102574 224.64  L 187.593557 224.64  L 187.593557 199.026767  L 183.102574 199.026767  z " style="fill:#4b89b9;opacity:0.4;" />
   </g>
   <g id="patch_39">
    <path clip-path="url(#pf207f11d4f)" d="M 187.593557 224.64  L 192.08454 224.64  L 192.08454 211.288421  L 187.593557 211.288421  z " style="fill:#4b89b9;opacity:0.4;" />
   </g>
   <g id="patch_40">
    <path clip-path="url(#pf207f11d4f)" d="M 192.08454 224.64  L 196.575522 224.64  L 196.575522 222.732632  L 192.08454 222.732632  z " style="fill:#4b89b9;opacity:0.4;" />
   </g>
   <g id="patch_41">
    <path clip-path="url(#pf207f11d4f)" d="M 196.575522 224.64  L 201.066505 224.64  L 201.066505 224.095038  L 196.575522 224.095038  z " style="fill:#4b89b9;opacity:0.4;" />
   </g>
   <g id="patch_42">
    <path clip-path="url(#pf207f11d4f)" d="M 201.066505 224.64  L 205.557488 224.64  L 205.557488 223.550075  L 201.066505 223.550075  z " style="fill:#4b89b9;opacity:0.4;" />
   </g>
   <g id="patch_43">
    <path clip-path="url(#pf207f11d4f)" d="M 77.323989 224.64  L 83.647935 224.64  L 83.647935 223.005113  L 77.323989 223.005113  z " style="fill:#d2553e;opacity:0.4;" />
   </g>
   <g id="patch_44">
    <path clip-path="url(#pf207f11d4f)" d="M 83.647935 224.64  L 89.97188 224.64  L 89.97188 223.822556  L 83.647935 223.822556  z " style="fill:#d2553e;opacity:0.4;" />
   </g>
   <g id="patch_45">
    <path clip-path="url(#pf207f11d4f)" d="M 89.97188 224.64  L 96.295826 224.64  L 96.295826 223.005113  L 89.97188 223.005113  z " style="fill:#d2553e;opacity:0.4;" />
   </g>
   <g id="patch_46">
    <path clip-path="url(#pf207f11d4f)" d="M 96.295826 224.64  L 102.619772 224.64  L 102.619772 223.005113  L 96.295826 223.005113  z " style="fill:#d2553e;opacity:0.4;" />
   </g>
   <g id="patch_47">
    <path clip-path="url(#pf207f11d4f)" d="M 102.619772 224.64  L 108.943718 224.64  L 108.943718 223.005113  L 102.619772 223.005113  z " style="fill:#d2553e;opacity:0.4;" />
   </g>
   <g id="patch_48">
    <path clip-path="url(#pf207f11d4f)" d="M 108.943718 224.64  L 115.267663 224.64  L 115.267663 219.735338  L 108.943718 219.735338  z " style="fill:#d2553e;opacity:0.4;" />
   </g>
   <g id="patch_49">
    <path clip-path="url(#pf207f11d4f)" d="M 115.267663 224.64  L 121.591609 224.64  L 121.591609 221.642707  L 115.267663 221.642707  z " style="fill:#d2553e;opacity:0.4;" />
   </g>
   <g id="patch_50">
    <path clip-path="url(#pf207f11d4f)" d="M 121.591609 224.64  L 127.915555 224.64  L 127.915555 218.372932  L 121.591609 218.372932  z " style="fill:#d2553e;opacity:0.4;" />
   </g>
   <g id="patch_51">
    <path clip-path="url(#pf207f11d4f)" d="M 127.915555 224.64  L 134.239501 224.64  L 134.239501 214.285714  L 127.915555 214.285714  z " style="fill:#d2553e;opacity:0.4;" />
   </g>
   <g id="patch_52">
    <path clip-path="url(#pf207f11d4f)" d="M 134.239501 224.64  L 140.563446 224.64  L 140.563446 214.285714  L 134.239501 214.285714  z " style="fill:#d2553e;opacity:0.4;" />
   </g>
   <g id="patch_53">
    <path clip-path="url(#pf207f11d4f)" d="M 140.563446 224.64  L 146.887392 224.64  L 146.887392 204.748872  L 140.563446 204.748872  z " style="fill:#d2553e;opacity:0.4;" />
   </g>
   <g id="patch_54">
    <path clip-path="url(#pf207f11d4f)" d="M 146.887392 224.64  L 153.211338 224.64  L 153.211338 196.574436  L 146.887392 196.574436  z " style="fill:#d2553e;opacity:0.4;" />
   </g>
   <g id="patch_55">
    <path clip-path="url(#pf207f11d4f)" d="M 153.211338 224.64  L 159.535283 224.64  L 159.535283 199.844211  L 153.211338 199.844211  z " style="fill:#d2553e;opacity:0.4;" />
   </g>
   <g id="patch_56">
    <path clip-path="url(#pf207f11d4f)" d="M 159.535283 224.64  L 165.859229 224.64  L 165.859229 181.860451  L 159.535283 181.860451  z " style="fill:#d2553e;opacity:0.4;" />
   </g>
   <g id="patch_57">
    <path clip-path="url(#pf207f11d4f)" d="M 165.859229 224.64  L 172.183175 224.64  L 172.183175 168.508872  L 165.859229 168.508872  z " style="fill:#d2553e;opacity:0.4;" />
   </g>
   <g id="patch_58">
    <path clip-path="url(#pf207f11d4f)" d="M 172.183175 224.64  L 178.507121 224.64  L 178.507121 170.416241  L 172.183175 170.416241  z " style="fill:#d2553e;opacity:0.4;" />
   </g>
   <g id="patch_59">
    <path clip-path="url(#pf207f11d4f)" d="M 178.507121 224.64  L 184.831066 224.64  L 184.831066 121.097143  L 178.507121 121.097143  z " style="fill:#d2553e;opacity:0.4;" />
   </g>
   <g id="patch_60">
    <path clip-path="url(#pf207f11d4f)" d="M 184.831066 224.64  L 191.155012 224.64  L 191.155012 102.568421  L 184.831066 102.568421  z " style="fill:#d2553e;opacity:0.4;" />
   </g>
   <g id="patch_61">
    <path clip-path="url(#pf207f11d4f)" d="M 191.155012 224.64  L 197.478958 224.64  L 197.478958 67.690827  L 191.155012 67.690827  z " style="fill:#d2553e;opacity:0.4;" />
   </g>
   <g id="patch_62">
    <path clip-path="url(#pf207f11d4f)" d="M 197.478958 224.64  L 203.802904 224.64  L 203.802904 110.197895  L 197.478958 110.197895  z " style="fill:#d2553e;opacity:0.4;" />
   </g>
   <g id="patch_63">
    <path clip-path="url(#pf207f11d4f)" d="M 203.802904 224.64  L 210.126849 224.64  L 210.126849 88.67188  L 203.802904 88.67188  z " style="fill:#d2553e;opacity:0.4;" />
   </g>
   <g id="patch_64">
    <path clip-path="url(#pf207f11d4f)" d="M 210.126849 224.64  L 216.450795 224.64  L 216.450795 25.728722  L 210.126849 25.728722  z " style="fill:#d2553e;opacity:0.4;" />
   </g>
   <g id="patch_65">
    <path clip-path="url(#pf207f11d4f)" d="M 216.450795 224.64  L 222.774741 224.64  L 222.774741 17.554286  L 216.450795 17.554286  z " style="fill:#d2553e;opacity:0.4;" />
   </g>
   <g id="patch_66">
    <path clip-path="url(#pf207f11d4f)" d="M 222.774741 224.64  L 229.098687 224.64  L 229.098687 46.437293  L 222.774741 46.437293  z " style="fill:#d2553e;opacity:0.4;" />
   </g>
   <g id="patch_67">
    <path clip-path="url(#pf207f11d4f)" d="M 229.098687 224.64  L 235.422632 224.64  L 235.422632 88.399398  L 229.098687 88.399398  z " style="fill:#d2553e;opacity:0.4;" />
   </g>
   <g id="patch_68">
    <path clip-path="url(#pf207f11d4f)" d="M 235.422632 224.64  L 241.746578 224.64  L 241.746578 74.775338  L 235.422632 74.775338  z " style="fill:#d2553e;opacity:0.4;" />
   </g>
   <g id="patch_69">
    <path clip-path="url(#pf207f11d4f)" d="M 241.746578 224.64  L 248.070524 224.64  L 248.070524 60.061353  L 241.746578 60.061353  z " style="fill:#d2553e;opacity:0.4;" />
   </g>
   <g id="patch_70">
    <path clip-path="url(#pf207f11d4f)" d="M 248.070524 224.64  L 254.394469 224.64  L 254.394469 118.644812  L 248.070524 118.644812  z " style="fill:#d2553e;opacity:0.4;" />
   </g>
   <g id="patch_71">
    <path clip-path="url(#pf207f11d4f)" d="M 254.394469 224.64  L 260.718415 224.64  L 260.718415 109.652932  L 254.394469 109.652932  z " style="fill:#d2553e;opacity:0.4;" />
   </g>
   <g id="patch_72">
    <path clip-path="url(#pf207f11d4f)" d="M 260.718415 224.64  L 267.042361 224.64  L 267.042361 137.446015  L 260.718415 137.446015  z " style="fill:#d2553e;opacity:0.4;" />
   </g>
   <g id="patch_73">
    <path clip-path="url(#pf207f11d4f)" d="M 267.042361 224.64  L 273.366307 224.64  L 273.366307 118.644812  L 267.042361 118.644812  z " style="fill:#d2553e;opacity:0.4;" />
   </g>
   <g id="patch_74">
    <path clip-path="url(#pf207f11d4f)" d="M 273.366307 224.64  L 279.690252 224.64  L 279.690252 146.437895  L 273.366307 146.437895  z " style="fill:#d2553e;opacity:0.4;" />
   </g>
   <g id="patch_75">
    <path clip-path="url(#pf207f11d4f)" d="M 279.690252 224.64  L 286.014198 224.64  L 286.014198 155.157293  L 279.690252 155.157293  z " style="fill:#d2553e;opacity:0.4;" />
   </g>
   <g id="patch_76">
    <path clip-path="url(#pf207f11d4f)" d="M 286.014198 224.64  L 292.338144 224.64  L 292.338144 166.873985  L 286.014198 166.873985  z " style="fill:#d2553e;opacity:0.4;" />
   </g>
   <g id="patch_77">
    <path clip-path="url(#pf207f11d4f)" d="M 292.338144 224.64  L 298.66209 224.64  L 298.66209 182.677895  L 292.338144 182.677895  z " style="fill:#d2553e;opacity:0.4;" />
   </g>
   <g id="patch_78">
    <path clip-path="url(#pf207f11d4f)" d="M 298.66209 224.64  L 304.986035 224.64  L 304.986035 184.040301  L 298.66209 184.040301  z " style="fill:#d2553e;opacity:0.4;" />
   </g>
   <g id="patch_79">
    <path clip-path="url(#pf207f11d4f)" d="M 304.986035 224.64  L 311.309981 224.64  L 311.309981 181.043008  L 304.986035 181.043008  z " style="fill:#d2553e;opacity:0.4;" />
   </g>
   <g id="patch_80">
    <path clip-path="url(#pf207f11d4f)" d="M 311.309981 224.64  L 317.633927 224.64  L 317.633927 200.389173  L 311.309981 200.389173  z " style="fill:#d2553e;opacity:0.4;" />
   </g>
   <g id="patch_81">
    <path clip-path="url(#pf207f11d4f)" d="M 317.633927 224.64  L 323.957872 224.64  L 323.957872 216.465564  L 317.633927 216.465564  z " style="fill:#d2553e;opacity:0.4;" />
   </g>
   <g id="patch_82">
    <path clip-path="url(#pf207f11d4f)" d="M 323.957872 224.64  L 330.281818 224.64  L 330.281818 214.013233  L 323.957872 214.013233  z " style="fill:#d2553e;opacity:0.4;" />
   </g>
   <g id="line2d_7">
    <path clip-path="url(#pf207f11d4f)" d="M 90.98453 224.64  L 90.98453 7.2  " style="fill:none;stroke:#008000;stroke-linecap:square;stroke-width:1.5;" />
   </g>
   <g id="patch_83">
    <path d="M 10.7 224.64  L 10.7 7.2  " style="fill:none;stroke:#ffffff;stroke-linecap:square;stroke-linejoin:miter;" />
   </g>
   <g id="patch_84">
    <path d="M 345.5 224.64  L 345.5 7.2  " style="fill:none;stroke:#ffffff;stroke-linecap:square;stroke-linejoin:miter;" />
   </g>
   <g id="patch_85">
    <path d="M 10.7 224.64  L 345.5 224.64  " style="fill:none;stroke:#ffffff;stroke-linecap:square;stroke-linejoin:miter;" />
   </g>
   <g id="patch_86">
    <path d="M 10.7 7.2  L 345.5 7.2  " style="fill:none;stroke:#ffffff;stroke-linecap:square;stroke-linejoin:miter;" />
   </g>
  </g>
 </g>
 <defs>
  <clipPath id="pf207f11d4f">
   <rect height="217.44" width="334.8" x="10.7" y="7.2" />
  </clipPath>
 </defs>
</svg>